<svg width="29" height="29" viewBox="0 0 29 29" fill="none" xmlns="http://www.w3.org/2000/svg">
<path d="M14.4995 16.1911L8.57865 22.112C8.35712 22.3335 8.07517 22.4443 7.73281 22.4443C7.39045 22.4443 7.10851 22.3335 6.88698 22.112C6.66545 21.8905 6.55469 21.6085 6.55469 21.2661C6.55469 20.9238 6.66545 20.6418 6.88698 20.4203L12.8078 14.4995L6.88698 8.57865C6.66545 8.35712 6.55469 8.07517 6.55469 7.73281C6.55469 7.39045 6.66545 7.10851 6.88698 6.88698C7.10851 6.66545 7.39045 6.55469 7.73281 6.55469C8.07517 6.55469 8.35712 6.66545 8.57865 6.88698L14.4995 12.8078L20.4203 6.88698C20.6418 6.66545 20.9238 6.55469 21.2661 6.55469C21.6085 6.55469 21.8905 6.66545 22.112 6.88698C22.3335 7.10851 22.4443 7.39045 22.4443 7.73281C22.4443 8.07517 22.3335 8.35712 22.112 8.57865L16.1911 14.4995L22.112 20.4203C22.3335 20.6418 22.4443 20.9238 22.4443 21.2661C22.4443 21.6085 22.3335 21.8905 22.112 22.112C21.8905 22.3335 21.6085 22.4443 21.2661 22.4443C20.9238 22.4443 20.6418 22.3335 20.4203 22.112L14.4995 16.1911Z" fill="#1F0000"/>
</svg>
