<svg width="130" height="130" viewBox="0 0 130 130" fill="none" xmlns="http://www.w3.org/2000/svg">
<path d="M68.8474 0.740204C65.9012 -0.246735 64.098 -0.246735 61.1517 0.740204C53.9642 3.14741 54.2759 18.3808 56.4969 33.4109C50.8738 19.2966 43.4969 5.96497 36.0723 7.49048C33.0288 8.11616 31.4693 9.02085 29.4163 11.3533C24.4794 16.9623 32.1025 29.6944 41.3878 41.4399C29.6214 32.1807 16.873 24.585 11.2751 29.5348C8.94745 31.5927 8.04585 33.154 7.42724 36.1988C5.92827 43.5765 19.0848 50.8747 33.104 56.4523C18.1739 54.2728 3.13105 54.0137 0.740204 61.1522C-0.246735 64.0984 -0.246735 65.9016 0.740204 68.8478C3.13105 75.9863 18.1739 75.7272 33.104 73.5477C19.0848 79.1253 5.92782 86.4235 7.4268 93.8012C8.04585 96.846 8.94745 98.4073 11.2751 100.465C16.873 105.415 29.6219 97.8197 41.3878 88.5601C32.1025 100.306 24.4794 113.038 29.4167 118.647C31.4697 120.979 33.0293 121.884 36.0723 122.51C43.4974 124.035 50.8742 110.703 56.4978 96.5887C54.2763 111.619 53.9646 126.853 61.1522 129.26C64.0984 130.247 65.9016 130.247 68.8478 129.26C76.0354 126.853 75.7237 111.618 73.5022 96.5878C79.1258 110.703 86.5026 124.035 93.9277 122.51C96.9712 121.884 98.5307 120.979 100.584 118.647C105.521 113.038 97.8975 100.306 88.6122 88.5601C100.379 97.8197 113.127 105.415 118.725 100.465C121.053 98.4073 121.955 96.846 122.573 93.8012C124.073 86.4235 110.916 79.1253 96.8964 73.5477C111.826 75.7272 126.869 75.9863 129.26 68.8478C130.247 65.9016 130.247 64.0984 129.26 61.1522C126.869 54.0137 111.826 54.2728 96.8964 56.4523C110.916 50.8747 124.072 43.5765 122.573 36.1988C121.954 33.154 121.053 31.5927 118.725 29.5348C113.127 24.585 100.378 32.1803 88.6118 41.4399C97.8971 29.6944 105.521 16.9623 100.583 11.3533C98.5303 9.02085 96.9712 8.11616 93.9277 7.49048C86.5026 5.96497 79.1258 19.297 73.5022 33.4118C75.7237 18.3813 76.035 3.14741 68.8474 0.740204Z" fill="#FFFBEA"/>
<path d="M45.7909 71.216C45.0469 71.216 44.3809 71.06 43.7929 70.748C43.2169 70.436 42.7609 69.98 42.4249 69.38C42.1009 68.768 41.9389 68.03 41.9389 67.166C41.9389 66.446 42.0529 65.75 42.2809 65.078C42.5209 64.406 42.8569 63.8 43.2889 63.26C43.7209 62.72 44.2429 62.294 44.8549 61.982C45.4789 61.658 46.1689 61.496 46.9249 61.496C47.5609 61.496 48.0949 61.598 48.5269 61.802C48.9709 62.006 49.3069 62.288 49.5349 62.648C49.7629 63.008 49.8769 63.416 49.8769 63.872C49.8769 64.436 49.7329 64.934 49.4449 65.366C49.1689 65.798 48.7489 66.164 48.1849 66.464C47.6209 66.764 46.9129 66.986 46.0609 67.13C45.2209 67.274 44.2369 67.346 43.1089 67.346L43.2529 66.428C44.2129 66.416 45.0169 66.35 45.6649 66.23C46.3249 66.11 46.8469 65.948 47.2309 65.744C47.6269 65.528 47.9089 65.264 48.0769 64.952C48.2449 64.64 48.3289 64.286 48.3289 63.89C48.3289 63.614 48.2689 63.38 48.1489 63.188C48.0409 62.984 47.8729 62.828 47.6449 62.72C47.4289 62.612 47.1589 62.558 46.8349 62.558C46.3669 62.558 45.9349 62.678 45.5389 62.918C45.1549 63.158 44.8129 63.5 44.5129 63.944C44.2129 64.376 43.9789 64.88 43.8109 65.456C43.6429 66.032 43.5589 66.662 43.5589 67.346C43.5589 67.946 43.6489 68.462 43.8289 68.894C44.0089 69.314 44.2729 69.632 44.6209 69.848C44.9689 70.064 45.3949 70.172 45.8989 70.172C46.3429 70.172 46.7329 70.082 47.0689 69.902C47.4169 69.722 47.7169 69.488 47.9689 69.2C48.2209 68.912 48.4309 68.606 48.5989 68.282L49.4269 68.912C49.1869 69.404 48.8809 69.824 48.5089 70.172C48.1489 70.52 47.7349 70.784 47.2669 70.964C46.8109 71.132 46.3189 71.216 45.7909 71.216ZM51.5437 71L53.0017 63.386C53.0377 63.218 53.0017 63.086 52.8937 62.99C52.7977 62.894 52.6477 62.816 52.4437 62.756C52.2397 62.684 51.9877 62.624 51.6877 62.576L51.4537 62.54L51.6157 61.676H54.6397L54.2797 64.16L54.3697 64.376L53.1457 71H51.5437ZM64.1257 67.832C64.0537 68.168 63.9937 68.45 63.9457 68.678C63.8977 68.894 63.8617 69.074 63.8377 69.218C63.8137 69.362 63.8017 69.482 63.8017 69.578C63.8017 69.722 63.8437 69.83 63.9277 69.902C64.0237 69.974 64.1557 70.01 64.3237 70.01C64.5157 70.01 64.7017 69.992 64.8817 69.956C65.0737 69.908 65.2477 69.86 65.4037 69.812C65.5597 69.764 65.6797 69.728 65.7637 69.704L65.5837 70.676C65.4397 70.748 65.2777 70.82 65.0977 70.892C64.9177 70.952 64.7197 71 64.5037 71.036C64.2877 71.084 64.0597 71.108 63.8197 71.108C63.4957 71.108 63.2077 71.06 62.9557 70.964C62.7157 70.856 62.5237 70.706 62.3797 70.514C62.2477 70.31 62.1817 70.058 62.1817 69.758C62.1817 69.602 62.1937 69.44 62.2177 69.272C62.2417 69.092 62.2777 68.87 62.3257 68.606C62.3737 68.342 62.4457 68 62.5417 67.58L63.0637 65.024C63.1357 64.712 63.1837 64.46 63.2077 64.268C63.2437 64.064 63.2617 63.89 63.2617 63.746C63.2617 63.41 63.1957 63.146 63.0637 62.954C62.9437 62.762 62.7277 62.666 62.4157 62.666C62.0557 62.666 61.6957 62.78 61.3357 63.008C60.9757 63.224 60.6037 63.554 60.2197 63.998C59.8477 64.43 59.4457 64.976 59.0137 65.636L58.6357 65.15C59.0797 64.43 59.5177 63.8 59.9497 63.26C60.3937 62.708 60.8557 62.276 61.3357 61.964C61.8157 61.652 62.3557 61.496 62.9557 61.496C63.3517 61.496 63.6937 61.58 63.9817 61.748C64.2817 61.904 64.5097 62.132 64.6657 62.432C64.8217 62.732 64.8997 63.092 64.8997 63.512C64.8997 63.692 64.8817 63.908 64.8457 64.16C64.8217 64.4 64.7737 64.67 64.7017 64.97L64.1257 67.832ZM56.7277 71L57.8977 65.006C57.9577 64.694 57.9997 64.436 58.0237 64.232C58.0597 64.028 58.0777 63.854 58.0777 63.71C58.0777 63.386 58.0117 63.134 57.8797 62.954C57.7597 62.762 57.5437 62.666 57.2317 62.666C56.8597 62.666 56.4937 62.78 56.1337 63.008C55.7737 63.224 55.4077 63.554 55.0357 63.998C54.6637 64.43 54.2557 64.976 53.8117 65.636L53.4337 65.15C53.8897 64.418 54.3277 63.782 54.7477 63.242C55.1797 62.69 55.6357 62.264 56.1157 61.964C56.6077 61.652 57.1477 61.496 57.7357 61.496C58.1197 61.496 58.4497 61.58 58.7257 61.748C59.0137 61.904 59.2297 62.126 59.3737 62.414C59.5297 62.702 59.6077 63.056 59.6077 63.476C59.6077 63.548 59.6017 63.644 59.5897 63.764C59.5897 63.884 59.5837 64.022 59.5717 64.178C59.5597 64.322 59.5417 64.472 59.5177 64.628C59.5057 64.772 59.4877 64.904 59.4637 65.024L58.3297 71H56.7277ZM75.3141 64.232L74.6301 65.15C74.5581 64.622 74.4261 64.166 74.2341 63.782C74.0421 63.398 73.7841 63.104 73.4601 62.9C73.1481 62.684 72.7761 62.576 72.3441 62.576C71.9601 62.576 71.6001 62.672 71.2641 62.864C70.9281 63.044 70.6161 63.302 70.3281 63.638C70.0521 63.962 69.8121 64.346 69.6081 64.79C69.4161 65.222 69.2661 65.69 69.1581 66.194C69.0501 66.698 68.9961 67.214 68.9961 67.742C68.9961 68.27 69.0501 68.714 69.1581 69.074C69.2661 69.434 69.4341 69.71 69.6621 69.902C69.8901 70.082 70.1841 70.172 70.5441 70.172C70.9521 70.172 71.3361 70.052 71.6961 69.812C72.0681 69.56 72.4341 69.194 72.7941 68.714C73.1661 68.222 73.5621 67.622 73.9821 66.914L74.3781 67.418C73.9701 68.21 73.5561 68.888 73.1361 69.452C72.7281 70.016 72.2961 70.454 71.8401 70.766C71.3841 71.066 70.8561 71.216 70.2561 71.216C69.6321 71.216 69.0981 71.078 68.6541 70.802C68.2221 70.526 67.8861 70.124 67.6461 69.596C67.4181 69.068 67.3041 68.414 67.3041 67.634C67.3041 67.01 67.3821 66.398 67.5381 65.798C67.7061 65.198 67.9401 64.64 68.2401 64.124C68.5401 63.608 68.9001 63.152 69.3201 62.756C69.7401 62.36 70.2081 62.054 70.7241 61.838C71.2401 61.61 71.7861 61.496 72.3621 61.496C72.9381 61.496 73.4181 61.616 73.8021 61.856C74.1981 62.096 74.5161 62.42 74.7561 62.828C75.0081 63.236 75.1941 63.704 75.3141 64.232ZM76.3401 61.64L75.1701 67.832C75.1101 68.168 75.0561 68.45 75.0081 68.678C74.9601 68.894 74.9241 69.08 74.9001 69.236C74.8761 69.38 74.8641 69.494 74.8641 69.578C74.8641 69.722 74.9061 69.83 74.9901 69.902C75.0861 69.974 75.2241 70.01 75.4041 70.01C75.6801 70.01 75.9561 69.968 76.2321 69.884C76.5081 69.788 76.7121 69.728 76.8441 69.704L76.6641 70.676C76.5321 70.748 76.3761 70.82 76.1961 70.892C76.0161 70.952 75.8241 71 75.6201 71.036C75.4161 71.084 75.1941 71.108 74.9541 71.108C74.6661 71.108 74.4141 71.054 74.1981 70.946C73.9821 70.826 73.8081 70.664 73.6761 70.46C73.5561 70.256 73.4961 69.998 73.4961 69.686C73.4961 69.53 73.5081 69.338 73.5321 69.11C73.5561 68.87 73.5981 68.57 73.6581 68.21L73.4421 68.588L74.3781 63.458L74.4861 63.35L75.2601 61.64H76.3401ZM78.9728 69.758C78.9728 69.602 78.9848 69.44 79.0088 69.272C79.0328 69.092 79.0688 68.87 79.1168 68.606C79.1768 68.342 79.2488 68 79.3328 67.58L80.1068 63.422C80.1428 63.242 80.1068 63.104 79.9988 63.008C79.9028 62.9 79.7528 62.816 79.5488 62.756C79.3448 62.684 79.0928 62.624 78.7928 62.576L78.5408 62.54L78.7208 61.676H82.0148L80.8628 67.832C80.8028 68.168 80.7488 68.45 80.7008 68.678C80.6648 68.894 80.6348 69.074 80.6108 69.218C80.5988 69.362 80.5928 69.482 80.5928 69.578C80.5928 69.722 80.6348 69.83 80.7188 69.902C80.8148 69.974 80.9468 70.01 81.1148 70.01C81.3068 70.01 81.4928 69.992 81.6728 69.956C81.8648 69.908 82.0388 69.86 82.1948 69.812C82.3508 69.764 82.4708 69.728 82.5548 69.704L82.3748 70.676C82.2428 70.748 82.0868 70.82 81.9068 70.892C81.7268 70.952 81.5288 71 81.3128 71.036C81.0968 71.084 80.8748 71.108 80.6468 71.108C80.3228 71.108 80.0348 71.06 79.7828 70.964C79.5308 70.856 79.3328 70.706 79.1888 70.514C79.0448 70.31 78.9728 70.058 78.9728 69.758ZM80.2868 58.49C80.2868 58.142 80.3948 57.872 80.6108 57.68C80.8268 57.488 81.0908 57.392 81.4028 57.392C81.7268 57.392 81.9968 57.488 82.2128 57.68C82.4288 57.872 82.5368 58.142 82.5368 58.49C82.5368 58.838 82.4288 59.114 82.2128 59.318C81.9968 59.51 81.7268 59.606 81.4028 59.606C81.0908 59.606 80.8268 59.51 80.6108 59.318C80.3948 59.114 80.2868 58.838 80.2868 58.49ZM86.3944 59.336C86.4304 59.168 86.4004 59.036 86.3044 58.94C86.2084 58.844 86.0584 58.766 85.8544 58.706C85.6504 58.646 85.3924 58.586 85.0804 58.526L84.9004 58.49L85.0624 57.626H88.3024L86.3764 67.832C86.3164 68.168 86.2624 68.45 86.2144 68.678C86.1784 68.894 86.1484 69.074 86.1244 69.218C86.1124 69.362 86.1064 69.482 86.1064 69.578C86.1064 69.722 86.1484 69.83 86.2324 69.902C86.3164 69.974 86.4544 70.01 86.6464 70.01C86.8264 70.01 87.0064 69.992 87.1864 69.956C87.3784 69.908 87.5524 69.86 87.7084 69.812C87.8764 69.764 88.0024 69.728 88.0864 69.704L87.9064 70.676C87.7624 70.748 87.6004 70.82 87.4204 70.892C87.2404 70.952 87.0424 71 86.8264 71.036C86.6224 71.084 86.4004 71.108 86.1604 71.108C85.8364 71.108 85.5484 71.06 85.2964 70.964C85.0564 70.856 84.8644 70.706 84.7204 70.514C84.5884 70.31 84.5224 70.058 84.5224 69.758C84.5224 69.602 84.5284 69.434 84.5404 69.254C84.5644 69.074 84.6004 68.852 84.6484 68.588C84.7084 68.312 84.7804 67.97 84.8644 67.562L86.3944 59.336Z" fill="#1F0000"/>
</svg>
