<svg width="130" height="130" viewBox="0 0 130 130" fill="none" xmlns="http://www.w3.org/2000/svg">
<path d="M68.8474 0.740204C65.9012 -0.246735 64.098 -0.246735 61.1517 0.740204C53.9642 3.14741 54.2759 18.3808 56.4969 33.4109C50.8738 19.2966 43.4969 5.96497 36.0723 7.49048C33.0288 8.11616 31.4693 9.02085 29.4163 11.3533C24.4794 16.9623 32.1025 29.6944 41.3878 41.4399C29.6214 32.1807 16.873 24.585 11.2751 29.5348C8.94745 31.5927 8.04585 33.154 7.42724 36.1988C5.92827 43.5765 19.0848 50.8747 33.104 56.4523C18.1739 54.2728 3.13105 54.0137 0.740204 61.1522C-0.246735 64.0984 -0.246735 65.9016 0.740204 68.8478C3.13105 75.9863 18.1739 75.7272 33.104 73.5477C19.0848 79.1253 5.92782 86.4235 7.4268 93.8012C8.04585 96.846 8.94745 98.4073 11.2751 100.465C16.873 105.415 29.6219 97.8197 41.3878 88.5601C32.1025 100.306 24.4794 113.038 29.4167 118.647C31.4697 120.979 33.0293 121.884 36.0723 122.51C43.4974 124.035 50.8742 110.703 56.4978 96.5887C54.2763 111.619 53.9646 126.853 61.1522 129.26C64.0984 130.247 65.9016 130.247 68.8478 129.26C76.0354 126.853 75.7237 111.618 73.5022 96.5878C79.1258 110.703 86.5026 124.035 93.9277 122.51C96.9712 121.884 98.5307 120.979 100.584 118.647C105.521 113.038 97.8975 100.306 88.6122 88.5601C100.379 97.8197 113.127 105.415 118.725 100.465C121.053 98.4073 121.955 96.846 122.573 93.8012C124.073 86.4235 110.916 79.1253 96.8964 73.5477C111.826 75.7272 126.869 75.9863 129.26 68.8478C130.247 65.9016 130.247 64.0984 129.26 61.1522C126.869 54.0137 111.826 54.2728 96.8964 56.4523C110.916 50.8747 124.072 43.5765 122.573 36.1988C121.954 33.154 121.053 31.5927 118.725 29.5348C113.127 24.585 100.378 32.1803 88.6118 41.4399C97.8971 29.6944 105.521 16.9623 100.583 11.3533C98.5303 9.02085 96.9712 8.11616 93.9277 7.49048C86.5026 5.96497 79.1258 19.297 73.5022 33.4118C75.7237 18.3813 76.035 3.14741 68.8474 0.740204Z" fill="#FFFBEA"/>
<path d="M33.5183 59.16C33.5583 58.96 33.5249 58.8067 33.4183 58.7C33.3249 58.5933 33.1716 58.5067 32.9583 58.44C32.7449 58.3733 32.4649 58.3133 32.1183 58.26L31.8983 58.22L32.0583 57.3H35.5983L33.5583 68.78C33.5183 69.06 33.4783 69.3067 33.4383 69.52C33.4116 69.72 33.3916 69.8933 33.3783 70.04C33.3649 70.1733 33.3583 70.2933 33.3583 70.4C33.3583 70.5733 33.4116 70.7067 33.5183 70.8C33.6249 70.8933 33.7916 70.94 34.0183 70.94C34.2183 70.94 34.4183 70.9133 34.6183 70.86C34.8183 70.7933 34.9983 70.7267 35.1583 70.66C35.3316 70.5933 35.4516 70.5467 35.5183 70.52L35.3183 71.56C35.1849 71.6533 35.0249 71.7467 34.8383 71.84C34.6516 71.9333 34.4383 72.0067 34.1983 72.06C33.9716 72.1133 33.7249 72.14 33.4583 72.14C33.0983 72.14 32.7783 72.0867 32.4983 71.98C32.2183 71.86 31.9983 71.6867 31.8383 71.46C31.6783 71.22 31.5983 70.9267 31.5983 70.58C31.5983 70.4067 31.6049 70.2267 31.6183 70.04C31.6449 69.8533 31.6783 69.6267 31.7183 69.36C31.7716 69.0933 31.8316 68.7667 31.8983 68.38L33.5183 59.16ZM37.8548 70.58C37.8548 70.4067 37.8615 70.2333 37.8748 70.06C37.9015 69.8733 37.9348 69.6533 37.9748 69.4C38.0282 69.1333 38.0882 68.8067 38.1548 68.42L38.9748 63.74C39.0148 63.5267 38.9815 63.36 38.8748 63.24C38.7815 63.12 38.6215 63.0267 38.3948 62.96C38.1815 62.8933 37.9082 62.84 37.5748 62.8L37.2748 62.76L37.4548 61.84H41.0748L39.8548 68.78C39.8148 69.06 39.7748 69.3067 39.7348 69.52C39.7082 69.72 39.6882 69.8933 39.6748 70.04C39.6615 70.1733 39.6548 70.2933 39.6548 70.4C39.6548 70.5733 39.7082 70.7067 39.8148 70.8C39.9215 70.8933 40.0815 70.94 40.2948 70.94C40.4948 70.94 40.6948 70.9133 40.8948 70.86C41.0948 70.7933 41.2748 70.7267 41.4348 70.66C41.6082 70.5933 41.7282 70.5467 41.7948 70.52L41.5948 71.56C41.4615 71.6533 41.3015 71.7467 41.1148 71.84C40.9282 71.9333 40.7148 72.0067 40.4748 72.06C40.2482 72.1133 40.0015 72.14 39.7348 72.14C39.3748 72.14 39.0482 72.0867 38.7548 71.98C38.4748 71.86 38.2548 71.6867 38.0948 71.46C37.9348 71.22 37.8548 70.9267 37.8548 70.58ZM39.1748 58.28C39.1748 57.9067 39.2882 57.6133 39.5148 57.4C39.7548 57.1867 40.0482 57.08 40.3948 57.08C40.7415 57.08 41.0282 57.1867 41.2548 57.4C41.4948 57.6133 41.6148 57.9067 41.6148 58.28C41.6148 58.6533 41.4948 58.9533 41.2548 59.18C41.0282 59.3933 40.7415 59.5 40.3948 59.5C40.0482 59.5 39.7548 59.3933 39.5148 59.18C39.2882 58.9533 39.1748 58.6533 39.1748 58.28ZM43.7839 72L45.2639 63.7C45.3039 63.5 45.2706 63.3467 45.1639 63.24C45.0706 63.12 44.9106 63.0267 44.6839 62.96C44.4706 62.8933 44.1972 62.84 43.8639 62.8L43.5839 62.76L43.7439 61.84H47.1439L46.7039 64.46L46.8239 64.72L45.5639 72H43.7839ZM52.2839 68.78C52.2306 69.06 52.1839 69.3067 52.1439 69.52C52.1039 69.72 52.0706 69.8933 52.0439 70.04C52.0306 70.1733 52.0239 70.2933 52.0239 70.4C52.0239 70.5733 52.0772 70.7067 52.1839 70.8C52.2906 70.8933 52.4506 70.94 52.6639 70.94C52.8639 70.94 53.0639 70.9133 53.2639 70.86C53.4639 70.7933 53.6439 70.7267 53.8039 70.66C53.9772 70.5933 54.0972 70.5467 54.1639 70.52L53.9639 71.56C53.8306 71.6533 53.6639 71.7467 53.4639 71.84C53.2772 71.9333 53.0639 72.0067 52.8239 72.06C52.5972 72.1133 52.3506 72.14 52.0839 72.14C51.7239 72.14 51.4039 72.0867 51.1239 71.98C50.8439 71.86 50.6239 71.6867 50.4639 71.46C50.3039 71.22 50.2239 70.9267 50.2239 70.58C50.2239 70.4067 50.2306 70.2333 50.2439 70.06C50.2706 69.8733 50.3039 69.6533 50.3439 69.4C50.3839 69.1333 50.4439 68.8067 50.5239 68.42L51.0839 65.58C51.1506 65.2333 51.1972 64.9533 51.2239 64.74C51.2639 64.5133 51.2839 64.32 51.2839 64.16C51.2839 63.7733 51.1906 63.4667 51.0039 63.24C50.8306 63.0133 50.5306 62.9 50.1039 62.9C49.6772 62.9 49.2506 63.02 48.8239 63.26C48.4106 63.5 47.9772 63.8667 47.5239 64.36C47.0839 64.84 46.6306 65.4533 46.1639 66.2L45.6839 65.7C46.1772 64.8867 46.6772 64.1733 47.1839 63.56C47.6906 62.9467 48.2239 62.4733 48.7839 62.14C49.3439 61.8067 49.9639 61.64 50.6439 61.64C51.3906 61.64 51.9839 61.8467 52.4239 62.26C52.8639 62.66 53.0839 63.2333 53.0839 63.98C53.0839 64.1533 53.0706 64.3733 53.0439 64.64C53.0172 64.8933 52.9706 65.18 52.9039 65.5L52.2839 68.78ZM62.1672 68.9C62.2739 69.18 62.3872 69.4333 62.5072 69.66C62.6272 69.8867 62.7539 70.08 62.8872 70.24C63.0205 70.4 63.1539 70.5267 63.2872 70.62C63.4339 70.7 63.5739 70.74 63.7072 70.74C63.8939 70.74 64.0739 70.72 64.2472 70.68C64.4205 70.64 64.5805 70.5933 64.7272 70.54C64.8739 70.4867 64.9872 70.4467 65.0672 70.42L64.8672 71.46C64.7472 71.5667 64.5939 71.6733 64.4072 71.78C64.2339 71.8867 64.0405 71.9733 63.8272 72.04C63.6272 72.1067 63.4139 72.14 63.1872 72.14C62.7872 72.14 62.4272 72.0333 62.1072 71.82C61.7872 71.6067 61.5005 71.2933 61.2472 70.88C60.9939 70.4533 60.7539 69.94 60.5272 69.34L59.3672 66.26L59.3872 66.16C59.8939 65.68 60.3939 65.2 60.8872 64.72C61.3805 64.24 61.8739 63.76 62.3672 63.28C62.8739 62.8 63.3739 62.32 63.8672 61.84H65.6672V62.04C65.0405 62.5733 64.4139 63.1133 63.7872 63.66C63.1605 64.1933 62.5339 64.7333 61.9072 65.28C61.2805 65.8133 60.6539 66.3533 60.0272 66.9L60.9272 65.78L62.1672 68.9ZM55.9272 72L58.1472 59.16C58.1872 58.96 58.1539 58.8067 58.0472 58.7C57.9539 58.5933 57.8005 58.5067 57.5872 58.44C57.3739 58.3733 57.0939 58.3133 56.7472 58.26L56.5272 58.22L56.6872 57.3H60.2272L57.7072 72H55.9272ZM70.6317 72.24C69.8317 72.24 69.1117 72.0667 68.4717 71.72C67.8317 71.3733 67.3251 70.8667 66.9517 70.2C66.5784 69.52 66.3917 68.6933 66.3917 67.72C66.3917 66.9733 66.5184 66.24 66.7717 65.52C67.0251 64.8 67.3851 64.1467 67.8517 63.56C68.3317 62.9733 68.9051 62.5067 69.5717 62.16C70.2517 61.8133 71.0051 61.64 71.8317 61.64C72.4984 61.64 73.0717 61.7533 73.5517 61.98C74.0317 62.1933 74.3984 62.5 74.6517 62.9C74.9051 63.2867 75.0317 63.7333 75.0317 64.24C75.0317 64.8533 74.8784 65.4 74.5717 65.88C74.2651 66.3467 73.8051 66.7467 73.1917 67.08C72.5784 67.4 71.8117 67.64 70.8917 67.8C69.9717 67.96 68.8984 68.04 67.6717 68.04L67.8317 67.02C68.8717 67.0067 69.7384 66.94 70.4317 66.82C71.1384 66.6867 71.6984 66.5067 72.1117 66.28C72.5384 66.04 72.8384 65.7533 73.0117 65.42C73.1984 65.0733 73.2917 64.68 73.2917 64.24C73.2917 63.9467 73.2317 63.6933 73.1117 63.48C72.9917 63.2533 72.8184 63.08 72.5917 62.96C72.3651 62.84 72.0784 62.78 71.7317 62.78C71.2517 62.78 70.7984 62.9133 70.3717 63.18C69.9584 63.4333 69.5851 63.7933 69.2517 64.26C68.9317 64.7267 68.6784 65.2733 68.4917 65.9C68.3051 66.5267 68.2117 67.2133 68.2117 67.96C68.2117 68.6133 68.3051 69.18 68.4917 69.66C68.6917 70.1267 68.9784 70.4867 69.3517 70.74C69.7251 70.98 70.1851 71.1 70.7317 71.1C71.2251 71.1 71.6517 71 72.0117 70.8C72.3851 70.6 72.7051 70.34 72.9717 70.02C73.2384 69.7 73.4584 69.36 73.6317 69L74.5517 69.7C74.2984 70.2467 73.9717 70.7133 73.5717 71.1C73.1851 71.4733 72.7384 71.76 72.2317 71.96C71.7384 72.1467 71.2051 72.24 70.6317 72.24ZM79.9489 72.24C79.2556 72.24 78.6489 72.0867 78.1289 71.78C77.6089 71.4733 77.2089 71.02 76.9289 70.42C76.6489 69.82 76.5089 69.0733 76.5089 68.18C76.5089 67.4733 76.6022 66.8 76.7889 66.16C76.9756 65.5067 77.2422 64.9067 77.5889 64.36C77.9489 63.8133 78.3689 63.34 78.8489 62.94C79.3422 62.5267 79.8822 62.2067 80.4689 61.98C81.0689 61.7533 81.7089 61.64 82.3889 61.64C83.0022 61.64 83.5489 61.7333 84.0289 61.92C84.5089 62.1067 84.9289 62.3733 85.2889 62.72C85.6489 63.0533 85.9556 63.4467 86.2089 63.9L85.1889 65.02C85.0822 64.5533 84.8956 64.1533 84.6289 63.82C84.3622 63.4867 84.0356 63.2333 83.6489 63.06C83.2622 62.8867 82.8222 62.8 82.3289 62.8C81.8756 62.8 81.4489 62.9 81.0489 63.1C80.6489 63.2867 80.2822 63.5533 79.9489 63.9C79.6289 64.2467 79.3489 64.6533 79.1089 65.12C78.8822 65.5733 78.7022 66.0733 78.5689 66.62C78.4489 67.1667 78.3889 67.7333 78.3889 68.32C78.3889 68.9333 78.4556 69.4467 78.5889 69.86C78.7222 70.2733 78.9222 70.5867 79.1889 70.8C79.4689 71 79.8156 71.1 80.2289 71.1C80.5756 71.1 80.9089 71.0267 81.2289 70.88C81.5489 70.72 81.8689 70.4933 82.1889 70.2C82.5222 69.8933 82.8556 69.5133 83.1889 69.06C83.5356 68.5933 83.8889 68.0533 84.2489 67.44L84.7489 68.02C84.2556 68.9267 83.7622 69.6933 83.2689 70.32C82.7889 70.9467 82.2822 71.4267 81.7489 71.76C81.2156 72.08 80.6156 72.24 79.9489 72.24ZM85.3889 72.14C84.9089 72.14 84.5089 71.9933 84.1889 71.7C83.8689 71.4067 83.7089 70.9933 83.7089 70.46C83.7089 70.34 83.7156 70.22 83.7289 70.1C83.7422 69.9667 83.7622 69.8267 83.7889 69.68C83.8156 69.5333 83.8489 69.3667 83.8889 69.18L83.6089 69.44L85.3889 59.16C85.4289 58.96 85.3956 58.8067 85.2889 58.7C85.1956 58.5933 85.0422 58.5067 84.8289 58.44C84.6156 58.3733 84.3356 58.3133 83.9889 58.26L83.7689 58.22L83.9289 57.3H87.4689L85.4889 68.78C85.4489 69.06 85.4089 69.3067 85.3689 69.52C85.3422 69.72 85.3156 69.8933 85.2889 70.04C85.2756 70.1733 85.2689 70.2933 85.2689 70.4C85.2689 70.5867 85.3222 70.7267 85.4289 70.82C85.5356 70.9 85.6956 70.94 85.9089 70.94C86.2156 70.94 86.5156 70.88 86.8089 70.76C87.1022 70.64 87.3022 70.56 87.4089 70.52L87.2089 71.56C87.0756 71.6533 86.9156 71.7467 86.7289 71.84C86.5556 71.9333 86.3556 72.0067 86.1289 72.06C85.9022 72.1133 85.6556 72.14 85.3889 72.14ZM89.7494 70.58C89.7494 70.4067 89.756 70.2333 89.7694 70.06C89.796 69.8733 89.8294 69.6533 89.8694 69.4C89.9227 69.1333 89.9827 68.8067 90.0494 68.42L90.8694 63.74C90.9094 63.5267 90.876 63.36 90.7694 63.24C90.676 63.12 90.516 63.0267 90.2894 62.96C90.076 62.8933 89.8027 62.84 89.4694 62.8L89.1694 62.76L89.3494 61.84H92.9694L91.7494 68.78C91.7094 69.06 91.6694 69.3067 91.6294 69.52C91.6027 69.72 91.5827 69.8933 91.5694 70.04C91.556 70.1733 91.5494 70.2933 91.5494 70.4C91.5494 70.5733 91.6027 70.7067 91.7094 70.8C91.816 70.8933 91.976 70.94 92.1894 70.94C92.3894 70.94 92.5894 70.9133 92.7894 70.86C92.9894 70.7933 93.1694 70.7267 93.3294 70.66C93.5027 70.5933 93.6227 70.5467 93.6894 70.52L93.4894 71.56C93.356 71.6533 93.196 71.7467 93.0094 71.84C92.8227 71.9333 92.6094 72.0067 92.3694 72.06C92.1427 72.1133 91.896 72.14 91.6294 72.14C91.2694 72.14 90.9427 72.0867 90.6494 71.98C90.3694 71.86 90.1494 71.6867 89.9894 71.46C89.8294 71.22 89.7494 70.9267 89.7494 70.58ZM91.0694 58.28C91.0694 57.9067 91.1827 57.6133 91.4094 57.4C91.6494 57.1867 91.9427 57.08 92.2894 57.08C92.636 57.08 92.9227 57.1867 93.1494 57.4C93.3894 57.6133 93.5094 57.9067 93.5094 58.28C93.5094 58.6533 93.3894 58.9533 93.1494 59.18C92.9227 59.3933 92.636 59.5 92.2894 59.5C91.9427 59.5 91.6494 59.3933 91.4094 59.18C91.1827 58.9533 91.0694 58.6533 91.0694 58.28ZM95.6784 72L97.1584 63.7C97.1984 63.5 97.1651 63.3467 97.0584 63.24C96.9651 63.12 96.8051 63.0267 96.5784 62.96C96.3651 62.8933 96.0918 62.84 95.7584 62.8L95.4784 62.76L95.6384 61.84H99.0384L98.5984 64.46L98.7184 64.72L97.4584 72H95.6784ZM104.178 68.78C104.125 69.06 104.078 69.3067 104.038 69.52C103.998 69.72 103.965 69.8933 103.938 70.04C103.925 70.1733 103.918 70.2933 103.918 70.4C103.918 70.5733 103.972 70.7067 104.078 70.8C104.185 70.8933 104.345 70.94 104.558 70.94C104.758 70.94 104.958 70.9133 105.158 70.86C105.358 70.7933 105.538 70.7267 105.698 70.66C105.872 70.5933 105.992 70.5467 106.058 70.52L105.858 71.56C105.725 71.6533 105.558 71.7467 105.358 71.84C105.172 71.9333 104.958 72.0067 104.718 72.06C104.492 72.1133 104.245 72.14 103.978 72.14C103.618 72.14 103.298 72.0867 103.018 71.98C102.738 71.86 102.518 71.6867 102.358 71.46C102.198 71.22 102.118 70.9267 102.118 70.58C102.118 70.4067 102.125 70.2333 102.138 70.06C102.165 69.8733 102.198 69.6533 102.238 69.4C102.278 69.1333 102.338 68.8067 102.418 68.42L102.978 65.58C103.045 65.2333 103.092 64.9533 103.118 64.74C103.158 64.5133 103.178 64.32 103.178 64.16C103.178 63.7733 103.085 63.4667 102.898 63.24C102.725 63.0133 102.425 62.9 101.998 62.9C101.572 62.9 101.145 63.02 100.718 63.26C100.305 63.5 99.8718 63.8667 99.4184 64.36C98.9784 64.84 98.5251 65.4533 98.0584 66.2L97.5784 65.7C98.0718 64.8867 98.5718 64.1733 99.0784 63.56C99.5851 62.9467 100.118 62.4733 100.678 62.14C101.238 61.8067 101.858 61.64 102.538 61.64C103.285 61.64 103.878 61.8467 104.318 62.26C104.758 62.66 104.978 63.2333 104.978 63.98C104.978 64.1533 104.965 64.3733 104.938 64.64C104.912 64.8933 104.865 65.18 104.798 65.5L104.178 68.78Z" fill="#1F0000"/>
</svg>
