<svg width="28" height="28" viewBox="0 0 28 28" fill="none" xmlns="http://www.w3.org/2000/svg">
<path d="M4.66667 21C4.33612 21 4.05923 20.888 3.836 20.664C3.61278 20.44 3.50078 20.1631 3.5 19.8333C3.49923 19.5036 3.61123 19.2267 3.836 19.0027C4.06078 18.7787 4.33767 18.6667 4.66667 18.6667H23.3333C23.6639 18.6667 23.9412 18.7787 24.1652 19.0027C24.3892 19.2267 24.5008 19.5036 24.5 19.8333C24.4992 20.1631 24.3872 20.4404 24.164 20.6652C23.9408 20.8899 23.6639 21.0016 23.3333 21H4.66667ZM4.66667 15.1667C4.33612 15.1667 4.05923 15.0547 3.836 14.8307C3.61278 14.6067 3.50078 14.3298 3.5 14C3.49923 13.6702 3.61123 13.3933 3.836 13.1693C4.06078 12.9453 4.33767 12.8333 4.66667 12.8333H23.3333C23.6639 12.8333 23.9412 12.9453 24.1652 13.1693C24.3892 13.3933 24.5008 13.6702 24.5 14C24.4992 14.3298 24.3872 14.6071 24.164 14.8318C23.9408 15.0566 23.6639 15.1682 23.3333 15.1667H4.66667ZM4.66667 9.33333C4.33612 9.33333 4.05923 9.22133 3.836 8.99733C3.61278 8.77333 3.50078 8.49644 3.5 8.16667C3.49923 7.83689 3.61123 7.56 3.836 7.336C4.06078 7.112 4.33767 7 4.66667 7H23.3333C23.6639 7 23.9412 7.112 24.1652 7.336C24.3892 7.56 24.5008 7.83689 24.5 8.16667C24.4992 8.49644 24.3872 8.77372 24.164 8.9985C23.9408 9.22328 23.6639 9.33489 23.3333 9.33333H4.66667Z" fill="#1F0000"/>
</svg>
