<svg width="204" height="70" viewBox="0 0 204 70" fill="none" xmlns="http://www.w3.org/2000/svg">
<path d="M102 12.5C130.134 12.5 155.586 15.7425 173.988 20.9746C183.193 23.5916 190.605 26.6989 195.705 30.127C200.823 33.5672 203.5 37.2508 203.5 41C203.5 44.7492 200.823 48.4328 195.705 51.873C190.605 55.3011 183.193 58.4084 173.988 61.0254C155.586 66.2575 130.134 69.5 102 69.5C73.8662 69.5 48.4142 66.2575 30.0117 61.0254C20.8072 58.4084 13.3948 55.3011 8.29492 51.873C3.17704 48.4328 0.5 44.7492 0.5 41C0.5 37.2508 3.17704 33.5672 8.29492 30.127C13.3948 26.6989 20.8072 23.5916 30.0117 20.9746C48.4142 15.7425 73.8662 12.5 102 12.5Z" fill="#1F0000" stroke="#1F0000"/>
<path d="M102 3.5C130.134 3.5 155.586 6.74252 173.988 11.9746C183.193 14.5916 190.605 17.6989 195.705 21.127C200.823 24.5672 203.5 28.2508 203.5 32C203.5 35.7492 200.823 39.4328 195.705 42.873C190.605 46.3011 183.193 49.4084 173.988 52.0254C155.586 57.2575 130.134 60.5 102 60.5C73.8662 60.5 48.4142 57.2575 30.0117 52.0254C20.8072 49.4084 13.3948 46.3011 8.29492 42.873C3.17704 39.4328 0.5 35.7492 0.5 32C0.5 28.2508 3.17704 24.5672 8.29492 21.127C13.3948 17.6989 20.8072 14.5916 30.0117 11.9746C48.4142 6.74252 73.8662 3.5 102 3.5Z" fill="#FFFBEA" stroke="#1F0000"/>
<path d="M40.5998 26.256V26.616C40.3358 26.712 40.0538 26.922 39.7538 27.246C39.4658 27.57 39.1958 28.074 38.9438 28.758L35.1458 39.036C35.0498 39.024 34.9478 39.018 34.8398 39.018C34.7318 39.018 34.6238 39.018 34.5158 39.018C34.4198 39.018 34.3178 39.018 34.2098 39.018C34.1018 39.018 33.9998 39.024 33.9038 39.036L29.3138 27.768C29.1458 27.336 28.9598 27.042 28.7558 26.886C28.5518 26.718 28.3598 26.628 28.1798 26.616V26.256C28.5398 26.268 28.9598 26.28 29.4398 26.292C29.9318 26.304 30.4238 26.31 30.9158 26.31C31.4678 26.31 31.9838 26.304 32.4638 26.292C32.9558 26.28 33.3518 26.268 33.6518 26.256V26.616C33.2678 26.628 32.9678 26.676 32.7518 26.76C32.5358 26.832 32.4158 26.976 32.3918 27.192C32.3678 27.396 32.4398 27.708 32.6078 28.128L35.8838 36.462L35.5058 36.912L37.9898 30.216C38.3138 29.316 38.4818 28.608 38.4938 28.092C38.5058 27.576 38.3798 27.204 38.1158 26.976C37.8518 26.748 37.4738 26.628 36.9818 26.616V26.256C37.3898 26.268 37.7738 26.28 38.1338 26.292C38.4938 26.304 38.8598 26.31 39.2318 26.31C39.4958 26.31 39.7418 26.304 39.9698 26.292C40.2098 26.28 40.4198 26.268 40.5998 26.256ZM43.2039 25.05C43.7079 25.05 44.1039 25.176 44.3919 25.428C44.6919 25.668 44.8419 26.004 44.8419 26.436C44.8419 26.868 44.6919 27.21 44.3919 27.462C44.1039 27.702 43.7079 27.822 43.2039 27.822C42.6999 27.822 42.2979 27.702 41.9979 27.462C41.7099 27.21 41.5659 26.868 41.5659 26.436C41.5659 26.004 41.7099 25.668 41.9979 25.428C42.2979 25.176 42.6999 25.05 43.2039 25.05ZM44.6079 29.496V37.326C44.6079 37.83 44.6919 38.172 44.8599 38.352C45.0399 38.532 45.3399 38.622 45.7599 38.622V39C45.5439 38.988 45.2079 38.976 44.7519 38.964C44.2959 38.94 43.8339 38.928 43.3659 38.928C42.8979 38.928 42.4239 38.94 41.9439 38.964C41.4639 38.976 41.1039 38.988 40.8639 39V38.622C41.2839 38.622 41.5779 38.532 41.7459 38.352C41.9259 38.172 42.0159 37.83 42.0159 37.326V31.656C42.0159 31.116 41.9319 30.72 41.7639 30.468C41.6079 30.204 41.3079 30.072 40.8639 30.072V29.694C41.2479 29.73 41.6199 29.748 41.9799 29.748C42.4839 29.748 42.9519 29.73 43.3839 29.694C43.8279 29.646 44.2359 29.58 44.6079 29.496ZM51.7256 29.442C52.7816 29.442 53.6096 29.754 54.2096 30.378C54.8096 31.002 55.1096 32.022 55.1096 33.438H49.1876L49.1516 33.096H52.8416C52.8536 32.508 52.8176 31.968 52.7336 31.476C52.6496 30.972 52.5176 30.57 52.3376 30.27C52.1576 29.97 51.9176 29.82 51.6176 29.82C51.1976 29.82 50.8376 30.084 50.5376 30.612C50.2496 31.14 50.0756 32.016 50.0156 33.24L50.0696 33.348C50.0576 33.492 50.0456 33.642 50.0336 33.798C50.0336 33.954 50.0336 34.116 50.0336 34.284C50.0336 35.112 50.1476 35.784 50.3756 36.3C50.6156 36.816 50.9156 37.194 51.2756 37.434C51.6356 37.662 52.0016 37.776 52.3736 37.776C52.6256 37.776 52.8836 37.74 53.1476 37.668C53.4236 37.584 53.6996 37.44 53.9756 37.236C54.2516 37.02 54.5096 36.72 54.7496 36.336L55.0736 36.444C54.9296 36.9 54.7016 37.344 54.3896 37.776C54.0776 38.208 53.6816 38.562 53.2016 38.838C52.7216 39.114 52.1456 39.252 51.4736 39.252C50.6576 39.252 49.9376 39.078 49.3136 38.73C48.6896 38.382 48.1976 37.854 47.8376 37.146C47.4896 36.438 47.3156 35.538 47.3156 34.446C47.3156 33.33 47.5016 32.4 47.8736 31.656C48.2576 30.912 48.7796 30.36 49.4396 30C50.1116 29.628 50.8736 29.442 51.7256 29.442ZM60.8542 29.694V30.072C60.5902 30.072 60.3562 30.09 60.1522 30.126C59.9602 30.15 59.8282 30.234 59.7562 30.378C59.6962 30.522 59.7202 30.756 59.8282 31.08L61.5382 36.426L61.3042 36.678L63.4102 29.676L63.7702 29.838L61.0162 39.036C60.8242 39.024 60.6322 39.018 60.4402 39.018C60.2482 39.018 60.0502 39.024 59.8462 39.036L57.0022 31.08C56.8342 30.6 56.6482 30.312 56.4442 30.216C56.2522 30.12 56.0902 30.072 55.9582 30.072V29.694C56.3422 29.73 56.7382 29.76 57.1462 29.784C57.5662 29.796 58.0222 29.802 58.5142 29.802C58.8862 29.802 59.2762 29.79 59.6842 29.766C60.1042 29.742 60.4942 29.718 60.8542 29.694ZM70.2502 29.694V30.054C70.0222 30.114 69.8062 30.252 69.6022 30.468C69.3982 30.684 69.2062 31.062 69.0262 31.602L66.6322 39.036C66.4402 39.024 66.2422 39.018 66.0382 39.018C65.8462 39.018 65.6542 39.024 65.4622 39.036L62.9242 32.106L63.4102 29.676C63.6262 29.688 63.8422 29.694 64.0582 29.694C64.2862 29.682 64.5082 29.676 64.7242 29.676L67.1902 36.948L66.9922 36.75L68.1982 32.934C68.4022 32.274 68.4802 31.74 68.4322 31.332C68.3842 30.924 68.2402 30.618 68.0002 30.414C67.7602 30.21 67.4362 30.09 67.0282 30.054V29.694C67.2202 29.706 67.4242 29.718 67.6402 29.73C67.8682 29.73 68.0902 29.736 68.3062 29.748C68.5342 29.748 68.7262 29.748 68.8822 29.748C69.1222 29.748 69.3682 29.742 69.6202 29.73C69.8842 29.718 70.0942 29.706 70.2502 29.694ZM80.9444 26.22L85.3184 37.488C85.4864 37.92 85.6724 38.22 85.8764 38.388C86.0924 38.544 86.2844 38.628 86.4524 38.64V39C86.0924 38.976 85.6664 38.964 85.1744 38.964C84.6944 38.952 84.2084 38.946 83.7164 38.946C83.1644 38.946 82.6424 38.952 82.1504 38.964C81.6584 38.964 81.2684 38.976 80.9804 39V38.64C81.5924 38.616 81.9764 38.514 82.1324 38.334C82.3004 38.142 82.2644 37.74 82.0244 37.128L78.9644 28.758L79.2884 28.29L76.5524 35.418C76.2884 36.078 76.1264 36.618 76.0664 37.038C76.0184 37.458 76.0484 37.782 76.1564 38.01C76.2764 38.238 76.4624 38.4 76.7144 38.496C76.9784 38.58 77.2904 38.628 77.6504 38.64V39C77.2544 38.976 76.8764 38.964 76.5164 38.964C76.1564 38.952 75.7904 38.946 75.4184 38.946C75.1544 38.946 74.9024 38.952 74.6624 38.964C74.4344 38.964 74.2304 38.976 74.0504 39V38.64C74.3024 38.592 74.5604 38.43 74.8244 38.154C75.0884 37.878 75.3464 37.41 75.5984 36.75L79.7024 26.22C79.8944 26.232 80.0984 26.238 80.3144 26.238C80.5424 26.238 80.7524 26.232 80.9444 26.22ZM82.2044 33.816V34.176H76.8404L77.0204 33.816H82.2044ZM90.9703 24.906V37.326C90.9703 37.83 91.0543 38.172 91.2223 38.352C91.4023 38.532 91.7023 38.622 92.1223 38.622V39C91.8943 38.988 91.5523 38.976 91.0963 38.964C90.6403 38.94 90.1783 38.928 89.7103 38.928C89.2423 38.928 88.7683 38.94 88.2883 38.964C87.8203 38.976 87.4663 38.988 87.2263 39V38.622C87.6463 38.622 87.9403 38.532 88.1083 38.352C88.2883 38.172 88.3783 37.83 88.3783 37.326V27.066C88.3783 26.526 88.2943 26.13 88.1263 25.878C87.9703 25.614 87.6703 25.482 87.2263 25.482V25.104C87.6103 25.14 87.9823 25.158 88.3423 25.158C88.8343 25.158 89.3023 25.14 89.7463 25.104C90.1903 25.056 90.5983 24.99 90.9703 24.906ZM97.2056 24.906V37.326C97.2056 37.83 97.2896 38.172 97.4576 38.352C97.6376 38.532 97.9376 38.622 98.3576 38.622V39C98.1296 38.988 97.7876 38.976 97.3316 38.964C96.8756 38.94 96.4136 38.928 95.9456 38.928C95.4776 38.928 95.0036 38.94 94.5236 38.964C94.0556 38.976 93.7016 38.988 93.4616 39V38.622C93.8816 38.622 94.1756 38.532 94.3436 38.352C94.5236 38.172 94.6136 37.83 94.6136 37.326V27.066C94.6136 26.526 94.5296 26.13 94.3616 25.878C94.2056 25.614 93.9056 25.482 93.4616 25.482V25.104C93.8456 25.14 94.2176 25.158 94.5776 25.158C95.0696 25.158 95.5376 25.14 95.9816 25.104C96.4256 25.056 96.8336 24.99 97.2056 24.906ZM104.585 26.256C104.885 26.268 105.287 26.28 105.791 26.292C106.307 26.304 106.817 26.31 107.321 26.31C107.897 26.31 108.455 26.304 108.995 26.292C109.535 26.28 109.919 26.274 110.147 26.274C111.815 26.274 113.063 26.604 113.891 27.264C114.719 27.924 115.133 28.776 115.133 29.82C115.133 30.252 115.049 30.708 114.881 31.188C114.713 31.656 114.425 32.094 114.017 32.502C113.621 32.898 113.075 33.222 112.379 33.474C111.683 33.726 110.807 33.852 109.751 33.852H107.915V33.492H109.571C110.279 33.492 110.813 33.33 111.173 33.006C111.545 32.682 111.797 32.256 111.929 31.728C112.073 31.2 112.145 30.63 112.145 30.018C112.145 28.878 111.977 28.026 111.641 27.462C111.305 26.898 110.729 26.616 109.913 26.616C109.445 26.616 109.139 26.718 108.995 26.922C108.863 27.126 108.797 27.54 108.797 28.164V36.984C108.797 37.452 108.845 37.8 108.941 38.028C109.037 38.256 109.223 38.406 109.499 38.478C109.775 38.55 110.183 38.592 110.723 38.604V39C110.351 38.988 109.871 38.976 109.283 38.964C108.695 38.952 108.077 38.946 107.429 38.946C106.913 38.946 106.409 38.952 105.917 38.964C105.425 38.976 104.981 38.988 104.585 39V38.64C104.969 38.616 105.257 38.568 105.449 38.496C105.641 38.424 105.767 38.28 105.827 38.064C105.899 37.848 105.935 37.524 105.935 37.092V28.164C105.935 27.72 105.899 27.396 105.827 27.192C105.767 26.976 105.635 26.832 105.431 26.76C105.239 26.676 104.957 26.628 104.585 26.616V26.256ZM122.668 29.442C123.052 29.442 123.364 29.526 123.604 29.694C123.844 29.85 124.018 30.054 124.126 30.306C124.246 30.558 124.306 30.822 124.306 31.098C124.306 31.542 124.174 31.908 123.91 32.196C123.658 32.472 123.322 32.61 122.902 32.61C122.482 32.61 122.152 32.508 121.912 32.304C121.684 32.088 121.57 31.806 121.57 31.458C121.57 31.122 121.642 30.846 121.786 30.63C121.942 30.402 122.134 30.21 122.362 30.054C122.194 30.006 122.026 30.012 121.858 30.072C121.63 30.108 121.414 30.204 121.21 30.36C121.006 30.504 120.832 30.69 120.688 30.918C120.544 31.134 120.43 31.374 120.346 31.638C120.262 31.89 120.22 32.136 120.22 32.376V37.146C120.22 37.722 120.358 38.112 120.634 38.316C120.922 38.52 121.348 38.622 121.912 38.622V39C121.636 38.988 121.234 38.976 120.706 38.964C120.178 38.94 119.626 38.928 119.05 38.928C118.57 38.928 118.084 38.94 117.592 38.964C117.1 38.976 116.728 38.988 116.476 39V38.622C116.896 38.622 117.19 38.532 117.358 38.352C117.538 38.172 117.628 37.83 117.628 37.326V31.656C117.628 31.116 117.544 30.72 117.376 30.468C117.22 30.204 116.92 30.072 116.476 30.072V29.694C116.86 29.73 117.232 29.748 117.592 29.748C118.096 29.748 118.564 29.73 118.996 29.694C119.44 29.646 119.848 29.58 120.22 29.496V31.17C120.364 30.846 120.556 30.552 120.796 30.288C121.036 30.024 121.312 29.82 121.624 29.676C121.936 29.52 122.284 29.442 122.668 29.442ZM129.816 29.442C130.692 29.442 131.46 29.604 132.12 29.928C132.78 30.252 133.296 30.774 133.668 31.494C134.04 32.214 134.226 33.168 134.226 34.356C134.226 35.544 134.04 36.498 133.668 37.218C133.296 37.926 132.78 38.442 132.12 38.766C131.46 39.09 130.692 39.252 129.816 39.252C128.964 39.252 128.202 39.09 127.53 38.766C126.87 38.442 126.348 37.926 125.964 37.218C125.592 36.498 125.406 35.544 125.406 34.356C125.406 33.168 125.592 32.214 125.964 31.494C126.348 30.774 126.87 30.252 127.53 29.928C128.202 29.604 128.964 29.442 129.816 29.442ZM129.816 29.802C129.336 29.802 128.934 30.162 128.61 30.882C128.286 31.59 128.124 32.748 128.124 34.356C128.124 35.964 128.286 37.122 128.61 37.83C128.934 38.538 129.336 38.892 129.816 38.892C130.308 38.892 130.71 38.538 131.022 37.83C131.346 37.122 131.508 35.964 131.508 34.356C131.508 32.748 131.346 31.59 131.022 30.882C130.71 30.162 130.308 29.802 129.816 29.802ZM135.044 42.384V42.06C135.632 42.048 136.1 41.814 136.448 41.358C136.796 40.914 136.97 40.236 136.97 39.324V31.656C136.97 31.116 136.886 30.72 136.718 30.468C136.55 30.204 136.25 30.072 135.818 30.072V29.694C136.202 29.73 136.574 29.748 136.934 29.748C137.426 29.748 137.894 29.73 138.338 29.694C138.782 29.646 139.19 29.58 139.562 29.496V37.308C139.562 37.968 139.52 38.55 139.436 39.054C139.352 39.558 139.214 40.002 139.022 40.386C138.83 40.77 138.578 41.112 138.266 41.412C137.966 41.7 137.552 41.934 137.024 42.114C136.508 42.294 135.848 42.384 135.044 42.384ZM138.068 25.05C138.572 25.05 138.968 25.176 139.256 25.428C139.556 25.668 139.706 26.004 139.706 26.436C139.706 26.868 139.556 27.21 139.256 27.462C138.968 27.702 138.572 27.822 138.068 27.822C137.564 27.822 137.162 27.702 136.862 27.462C136.574 27.21 136.43 26.868 136.43 26.436C136.43 26.004 136.574 25.668 136.862 25.428C137.162 25.176 137.564 25.05 138.068 25.05ZM146.418 29.442C147.474 29.442 148.302 29.754 148.902 30.378C149.502 31.002 149.802 32.022 149.802 33.438H143.88L143.844 33.096H147.534C147.546 32.508 147.51 31.968 147.426 31.476C147.342 30.972 147.21 30.57 147.03 30.27C146.85 29.97 146.61 29.82 146.31 29.82C145.89 29.82 145.53 30.084 145.23 30.612C144.942 31.14 144.768 32.016 144.708 33.24L144.762 33.348C144.75 33.492 144.738 33.642 144.726 33.798C144.726 33.954 144.726 34.116 144.726 34.284C144.726 35.112 144.84 35.784 145.068 36.3C145.308 36.816 145.608 37.194 145.968 37.434C146.328 37.662 146.694 37.776 147.066 37.776C147.318 37.776 147.576 37.74 147.84 37.668C148.116 37.584 148.392 37.44 148.668 37.236C148.944 37.02 149.202 36.72 149.442 36.336L149.766 36.444C149.622 36.9 149.394 37.344 149.082 37.776C148.77 38.208 148.374 38.562 147.894 38.838C147.414 39.114 146.838 39.252 146.166 39.252C145.35 39.252 144.63 39.078 144.006 38.73C143.382 38.382 142.89 37.854 142.53 37.146C142.182 36.438 142.008 35.538 142.008 34.446C142.008 33.33 142.194 32.4 142.566 31.656C142.95 30.912 143.472 30.36 144.132 30C144.804 29.628 145.566 29.442 146.418 29.442ZM156.064 29.442C156.532 29.442 156.958 29.496 157.342 29.604C157.738 29.7 158.062 29.826 158.314 29.982C158.626 30.174 158.866 30.414 159.034 30.702C159.214 30.978 159.304 31.302 159.304 31.674C159.304 32.094 159.172 32.442 158.908 32.718C158.644 32.982 158.302 33.114 157.882 33.114C157.462 33.114 157.126 32.994 156.874 32.754C156.622 32.514 156.496 32.19 156.496 31.782C156.496 31.398 156.616 31.08 156.856 30.828C157.096 30.564 157.372 30.39 157.684 30.306C157.588 30.186 157.444 30.084 157.252 30C157.06 29.916 156.844 29.874 156.604 29.874C156.232 29.874 155.902 29.982 155.614 30.198C155.338 30.414 155.104 30.714 154.912 31.098C154.72 31.482 154.57 31.932 154.462 32.448C154.366 32.964 154.318 33.528 154.318 34.14C154.318 35.064 154.432 35.79 154.66 36.318C154.9 36.846 155.2 37.218 155.56 37.434C155.932 37.65 156.316 37.758 156.712 37.758C156.94 37.758 157.186 37.722 157.45 37.65C157.726 37.578 158.002 37.434 158.278 37.218C158.566 37.002 158.83 36.696 159.07 36.3L159.376 36.408C159.244 36.852 159.028 37.296 158.728 37.74C158.428 38.184 158.038 38.55 157.558 38.838C157.078 39.114 156.49 39.252 155.794 39.252C155.014 39.252 154.306 39.084 153.67 38.748C153.046 38.4 152.542 37.872 152.158 37.164C151.786 36.444 151.6 35.52 151.6 34.392C151.6 33.312 151.792 32.406 152.176 31.674C152.572 30.93 153.106 30.372 153.778 30C154.45 29.628 155.212 29.442 156.064 29.442ZM164.508 26.742V29.694H166.632V30.054H164.508V37.326C164.508 37.686 164.574 37.944 164.706 38.1C164.838 38.244 165.036 38.316 165.3 38.316C165.516 38.316 165.732 38.238 165.948 38.082C166.164 37.914 166.356 37.632 166.524 37.236L166.83 37.398C166.638 37.938 166.344 38.382 165.948 38.73C165.564 39.078 165.036 39.252 164.364 39.252C163.968 39.252 163.62 39.198 163.32 39.09C163.02 38.994 162.768 38.844 162.564 38.64C162.3 38.376 162.126 38.052 162.042 37.668C161.958 37.272 161.916 36.762 161.916 36.138V30.054H160.404V29.694H161.916V27.318C162.42 27.318 162.882 27.276 163.302 27.192C163.734 27.096 164.136 26.946 164.508 26.742ZM171.286 29.442C171.79 29.442 172.228 29.508 172.6 29.64C172.984 29.76 173.26 29.88 173.428 30C173.836 30.276 174.088 30.096 174.184 29.46H174.562C174.538 29.796 174.52 30.21 174.508 30.702C174.496 31.182 174.49 31.824 174.49 32.628H174.112C174.052 32.184 173.938 31.746 173.77 31.314C173.602 30.882 173.356 30.528 173.032 30.252C172.72 29.976 172.312 29.838 171.808 29.838C171.46 29.838 171.166 29.94 170.926 30.144C170.686 30.336 170.566 30.618 170.566 30.99C170.566 31.35 170.674 31.668 170.89 31.944C171.106 32.208 171.382 32.466 171.718 32.718C172.066 32.958 172.426 33.216 172.798 33.492C173.194 33.792 173.554 34.092 173.878 34.392C174.202 34.68 174.46 34.998 174.652 35.346C174.844 35.694 174.94 36.108 174.94 36.588C174.94 37.128 174.784 37.602 174.472 38.01C174.16 38.406 173.746 38.712 173.23 38.928C172.726 39.144 172.162 39.252 171.538 39.252C171.178 39.252 170.854 39.216 170.566 39.144C170.29 39.072 170.05 38.982 169.846 38.874C169.69 38.802 169.54 38.736 169.396 38.676C169.264 38.604 169.138 38.544 169.018 38.496C168.898 38.46 168.79 38.502 168.694 38.622C168.61 38.742 168.544 38.91 168.496 39.126H168.118C168.142 38.742 168.16 38.274 168.172 37.722C168.184 37.17 168.19 36.438 168.19 35.526H168.568C168.64 36.174 168.772 36.75 168.964 37.254C169.156 37.746 169.414 38.136 169.738 38.424C170.074 38.7 170.494 38.838 170.998 38.838C171.202 38.838 171.4 38.796 171.592 38.712C171.784 38.628 171.94 38.49 172.06 38.298C172.192 38.106 172.258 37.86 172.258 37.56C172.258 37.032 172.084 36.594 171.736 36.246C171.4 35.898 170.968 35.52 170.44 35.112C170.056 34.8 169.69 34.494 169.342 34.194C169.006 33.882 168.73 33.546 168.514 33.186C168.298 32.814 168.19 32.394 168.19 31.926C168.19 31.386 168.334 30.93 168.622 30.558C168.91 30.186 169.288 29.91 169.756 29.73C170.236 29.538 170.746 29.442 171.286 29.442Z" fill="#1F0000"/>
</svg>
