<svg width="204" height="70" viewBox="0 0 204 70" fill="none" xmlns="http://www.w3.org/2000/svg">
<path d="M102 12.5C130.134 12.5 155.586 15.7425 173.988 20.9746C183.193 23.5916 190.605 26.6989 195.705 30.127C200.823 33.5672 203.5 37.2508 203.5 41C203.5 44.7492 200.823 48.4328 195.705 51.873C190.605 55.3011 183.193 58.4084 173.988 61.0254C155.586 66.2575 130.134 69.5 102 69.5C73.8662 69.5 48.4142 66.2575 30.0117 61.0254C20.8072 58.4084 13.3948 55.3011 8.29492 51.873C3.17704 48.4328 0.5 44.7492 0.5 41C0.5 37.2508 3.17704 33.5672 8.29492 30.127C13.3948 26.6989 20.8072 23.5916 30.0117 20.9746C48.4142 15.7425 73.8662 12.5 102 12.5Z" fill="#1F0000" stroke="#1F0000"/>
<path d="M102 3.5C130.134 3.5 155.586 6.74252 173.988 11.9746C183.193 14.5916 190.605 17.6989 195.705 21.127C200.823 24.5672 203.5 28.2508 203.5 32C203.5 35.7492 200.823 39.4328 195.705 42.873C190.605 46.3011 183.193 49.4084 173.988 52.0254C155.586 57.2575 130.134 60.5 102 60.5C73.8662 60.5 48.4142 57.2575 30.0117 52.0254C20.8072 49.4084 13.3948 46.3011 8.29492 42.873C3.17704 39.4328 0.5 35.7492 0.5 32C0.5 28.2508 3.17704 24.5672 8.29492 21.127C13.3948 17.6989 20.8072 14.5916 30.0117 11.9746C48.4142 6.74252 73.8662 3.5 102 3.5Z" fill="#FFFBEA" stroke="#1F0000"/>
<path d="M47.317 26.256V26.616C47.053 26.712 46.771 26.922 46.471 27.246C46.183 27.57 45.913 28.074 45.661 28.758L41.863 39.036C41.767 39.024 41.665 39.018 41.557 39.018C41.449 39.018 41.341 39.018 41.233 39.018C41.137 39.018 41.035 39.018 40.927 39.018C40.819 39.018 40.717 39.024 40.621 39.036L36.031 27.768C35.863 27.336 35.677 27.042 35.473 26.886C35.269 26.718 35.077 26.628 34.897 26.616V26.256C35.257 26.268 35.677 26.28 36.157 26.292C36.649 26.304 37.141 26.31 37.633 26.31C38.185 26.31 38.701 26.304 39.181 26.292C39.673 26.28 40.069 26.268 40.369 26.256V26.616C39.985 26.628 39.685 26.676 39.469 26.76C39.253 26.832 39.133 26.976 39.109 27.192C39.085 27.396 39.157 27.708 39.325 28.128L42.601 36.462L42.223 36.912L44.707 30.216C45.031 29.316 45.199 28.608 45.211 28.092C45.223 27.576 45.097 27.204 44.833 26.976C44.569 26.748 44.191 26.628 43.699 26.616V26.256C44.107 26.268 44.491 26.28 44.851 26.292C45.211 26.304 45.577 26.31 45.949 26.31C46.213 26.31 46.459 26.304 46.687 26.292C46.927 26.28 47.137 26.268 47.317 26.256ZM49.9211 25.05C50.4251 25.05 50.8211 25.176 51.1091 25.428C51.4091 25.668 51.5591 26.004 51.5591 26.436C51.5591 26.868 51.4091 27.21 51.1091 27.462C50.8211 27.702 50.4251 27.822 49.9211 27.822C49.4171 27.822 49.0151 27.702 48.7151 27.462C48.4271 27.21 48.2831 26.868 48.2831 26.436C48.2831 26.004 48.4271 25.668 48.7151 25.428C49.0151 25.176 49.4171 25.05 49.9211 25.05ZM51.3251 29.496V37.326C51.3251 37.83 51.4091 38.172 51.5771 38.352C51.7571 38.532 52.0571 38.622 52.4771 38.622V39C52.2611 38.988 51.9251 38.976 51.4691 38.964C51.0131 38.94 50.5511 38.928 50.0831 38.928C49.6151 38.928 49.1411 38.94 48.6611 38.964C48.1811 38.976 47.8211 38.988 47.5811 39V38.622C48.0011 38.622 48.2951 38.532 48.4631 38.352C48.6431 38.172 48.7331 37.83 48.7331 37.326V31.656C48.7331 31.116 48.6491 30.72 48.4811 30.468C48.3251 30.204 48.0251 30.072 47.5811 30.072V29.694C47.9651 29.73 48.3371 29.748 48.6971 29.748C49.2011 29.748 49.6691 29.73 50.1011 29.694C50.5451 29.646 50.9531 29.58 51.3251 29.496ZM58.4429 29.442C59.4989 29.442 60.3269 29.754 60.9269 30.378C61.5269 31.002 61.8269 32.022 61.8269 33.438H55.9049L55.8689 33.096H59.5589C59.5709 32.508 59.5349 31.968 59.4509 31.476C59.3669 30.972 59.2349 30.57 59.0549 30.27C58.8749 29.97 58.6349 29.82 58.3349 29.82C57.9149 29.82 57.5549 30.084 57.2549 30.612C56.9669 31.14 56.7929 32.016 56.7329 33.24L56.7869 33.348C56.7749 33.492 56.7629 33.642 56.7509 33.798C56.7509 33.954 56.7509 34.116 56.7509 34.284C56.7509 35.112 56.8649 35.784 57.0929 36.3C57.3329 36.816 57.6329 37.194 57.9929 37.434C58.3529 37.662 58.7189 37.776 59.0909 37.776C59.3429 37.776 59.6009 37.74 59.8649 37.668C60.1409 37.584 60.4169 37.44 60.6929 37.236C60.9689 37.02 61.2269 36.72 61.4669 36.336L61.7909 36.444C61.6469 36.9 61.4189 37.344 61.1069 37.776C60.7949 38.208 60.3989 38.562 59.9189 38.838C59.4389 39.114 58.8629 39.252 58.1909 39.252C57.3749 39.252 56.6549 39.078 56.0309 38.73C55.4069 38.382 54.9149 37.854 54.5549 37.146C54.2069 36.438 54.0329 35.538 54.0329 34.446C54.0329 33.33 54.2189 32.4 54.5909 31.656C54.9749 30.912 55.4969 30.36 56.1569 30C56.8289 29.628 57.5909 29.442 58.4429 29.442ZM67.5714 29.694V30.072C67.3074 30.072 67.0734 30.09 66.8694 30.126C66.6774 30.15 66.5454 30.234 66.4734 30.378C66.4134 30.522 66.4374 30.756 66.5454 31.08L68.2554 36.426L68.0214 36.678L70.1274 29.676L70.4874 29.838L67.7334 39.036C67.5414 39.024 67.3494 39.018 67.1574 39.018C66.9654 39.018 66.7674 39.024 66.5634 39.036L63.7194 31.08C63.5514 30.6 63.3654 30.312 63.1614 30.216C62.9694 30.12 62.8074 30.072 62.6754 30.072V29.694C63.0594 29.73 63.4554 29.76 63.8634 29.784C64.2834 29.796 64.7394 29.802 65.2314 29.802C65.6034 29.802 65.9934 29.79 66.4014 29.766C66.8214 29.742 67.2114 29.718 67.5714 29.694ZM76.9674 29.694V30.054C76.7394 30.114 76.5234 30.252 76.3194 30.468C76.1154 30.684 75.9234 31.062 75.7434 31.602L73.3494 39.036C73.1574 39.024 72.9594 39.018 72.7554 39.018C72.5634 39.018 72.3714 39.024 72.1794 39.036L69.6414 32.106L70.1274 29.676C70.3434 29.688 70.5594 29.694 70.7754 29.694C71.0034 29.682 71.2254 29.676 71.4414 29.676L73.9074 36.948L73.7094 36.75L74.9154 32.934C75.1194 32.274 75.1974 31.74 75.1494 31.332C75.1014 30.924 74.9574 30.618 74.7174 30.414C74.4774 30.21 74.1534 30.09 73.7454 30.054V29.694C73.9374 29.706 74.1414 29.718 74.3574 29.73C74.5854 29.73 74.8074 29.736 75.0234 29.748C75.2514 29.748 75.4434 29.748 75.5994 29.748C75.8394 29.748 76.0854 29.742 76.3374 29.73C76.6014 29.718 76.8114 29.706 76.9674 29.694ZM82.3528 26.256C82.6528 26.268 83.0548 26.28 83.5588 26.292C84.0748 26.304 84.5848 26.31 85.0888 26.31C85.6648 26.31 86.2228 26.304 86.7628 26.292C87.3028 26.28 87.6868 26.274 87.9148 26.274C89.5828 26.274 90.8308 26.604 91.6588 27.264C92.4868 27.924 92.9008 28.776 92.9008 29.82C92.9008 30.252 92.8168 30.708 92.6488 31.188C92.4808 31.656 92.1928 32.094 91.7848 32.502C91.3888 32.898 90.8428 33.222 90.1468 33.474C89.4508 33.726 88.5748 33.852 87.5188 33.852H85.6828V33.492H87.3388C88.0468 33.492 88.5808 33.33 88.9408 33.006C89.3128 32.682 89.5648 32.256 89.6968 31.728C89.8408 31.2 89.9128 30.63 89.9128 30.018C89.9128 28.878 89.7448 28.026 89.4088 27.462C89.0728 26.898 88.4968 26.616 87.6808 26.616C87.2128 26.616 86.9068 26.718 86.7628 26.922C86.6308 27.126 86.5648 27.54 86.5648 28.164V36.984C86.5648 37.452 86.6128 37.8 86.7088 38.028C86.8048 38.256 86.9908 38.406 87.2668 38.478C87.5428 38.55 87.9508 38.592 88.4908 38.604V39C88.1188 38.988 87.6388 38.976 87.0508 38.964C86.4628 38.952 85.8448 38.946 85.1968 38.946C84.6808 38.946 84.1768 38.952 83.6848 38.964C83.1928 38.976 82.7488 38.988 82.3528 39V38.64C82.7368 38.616 83.0248 38.568 83.2168 38.496C83.4088 38.424 83.5348 38.28 83.5948 38.064C83.6668 37.848 83.7028 37.524 83.7028 37.092V28.164C83.7028 27.72 83.6668 27.396 83.5948 27.192C83.5348 26.976 83.4028 26.832 83.1988 26.76C83.0068 26.676 82.7248 26.628 82.3528 26.616V26.256ZM100.436 29.442C100.82 29.442 101.132 29.526 101.372 29.694C101.612 29.85 101.786 30.054 101.894 30.306C102.014 30.558 102.074 30.822 102.074 31.098C102.074 31.542 101.942 31.908 101.678 32.196C101.426 32.472 101.09 32.61 100.67 32.61C100.25 32.61 99.92 32.508 99.68 32.304C99.452 32.088 99.338 31.806 99.338 31.458C99.338 31.122 99.41 30.846 99.554 30.63C99.71 30.402 99.902 30.21 100.13 30.054C99.962 30.006 99.794 30.012 99.626 30.072C99.398 30.108 99.182 30.204 98.978 30.36C98.774 30.504 98.6 30.69 98.456 30.918C98.312 31.134 98.198 31.374 98.114 31.638C98.03 31.89 97.988 32.136 97.988 32.376V37.146C97.988 37.722 98.126 38.112 98.402 38.316C98.69 38.52 99.116 38.622 99.68 38.622V39C99.404 38.988 99.002 38.976 98.474 38.964C97.946 38.94 97.394 38.928 96.818 38.928C96.338 38.928 95.852 38.94 95.36 38.964C94.868 38.976 94.496 38.988 94.244 39V38.622C94.664 38.622 94.958 38.532 95.126 38.352C95.306 38.172 95.396 37.83 95.396 37.326V31.656C95.396 31.116 95.312 30.72 95.144 30.468C94.988 30.204 94.688 30.072 94.244 30.072V29.694C94.628 29.73 95 29.748 95.36 29.748C95.864 29.748 96.332 29.73 96.764 29.694C97.208 29.646 97.616 29.58 97.988 29.496V31.17C98.132 30.846 98.324 30.552 98.564 30.288C98.804 30.024 99.08 29.82 99.392 29.676C99.704 29.52 100.052 29.442 100.436 29.442ZM107.584 29.442C108.46 29.442 109.228 29.604 109.888 29.928C110.548 30.252 111.064 30.774 111.436 31.494C111.808 32.214 111.994 33.168 111.994 34.356C111.994 35.544 111.808 36.498 111.436 37.218C111.064 37.926 110.548 38.442 109.888 38.766C109.228 39.09 108.46 39.252 107.584 39.252C106.732 39.252 105.97 39.09 105.298 38.766C104.638 38.442 104.116 37.926 103.732 37.218C103.36 36.498 103.174 35.544 103.174 34.356C103.174 33.168 103.36 32.214 103.732 31.494C104.116 30.774 104.638 30.252 105.298 29.928C105.97 29.604 106.732 29.442 107.584 29.442ZM107.584 29.802C107.104 29.802 106.702 30.162 106.378 30.882C106.054 31.59 105.892 32.748 105.892 34.356C105.892 35.964 106.054 37.122 106.378 37.83C106.702 38.538 107.104 38.892 107.584 38.892C108.076 38.892 108.478 38.538 108.79 37.83C109.114 37.122 109.276 35.964 109.276 34.356C109.276 32.748 109.114 31.59 108.79 30.882C108.478 30.162 108.076 29.802 107.584 29.802ZM117.312 26.742V29.694H119.436V30.054H117.312V37.326C117.312 37.686 117.378 37.944 117.51 38.1C117.642 38.244 117.84 38.316 118.104 38.316C118.32 38.316 118.536 38.238 118.752 38.082C118.968 37.914 119.16 37.632 119.328 37.236L119.634 37.398C119.442 37.938 119.148 38.382 118.752 38.73C118.368 39.078 117.84 39.252 117.168 39.252C116.772 39.252 116.424 39.198 116.124 39.09C115.824 38.994 115.572 38.844 115.368 38.64C115.104 38.376 114.93 38.052 114.846 37.668C114.762 37.272 114.72 36.762 114.72 36.138V30.054H113.208V29.694H114.72V27.318C115.224 27.318 115.686 27.276 116.106 27.192C116.538 27.096 116.94 26.946 117.312 26.742ZM125.1 29.442C125.976 29.442 126.744 29.604 127.404 29.928C128.064 30.252 128.58 30.774 128.952 31.494C129.324 32.214 129.51 33.168 129.51 34.356C129.51 35.544 129.324 36.498 128.952 37.218C128.58 37.926 128.064 38.442 127.404 38.766C126.744 39.09 125.976 39.252 125.1 39.252C124.248 39.252 123.486 39.09 122.814 38.766C122.154 38.442 121.632 37.926 121.248 37.218C120.876 36.498 120.69 35.544 120.69 34.356C120.69 33.168 120.876 32.214 121.248 31.494C121.632 30.774 122.154 30.252 122.814 29.928C123.486 29.604 124.248 29.442 125.1 29.442ZM125.1 29.802C124.62 29.802 124.218 30.162 123.894 30.882C123.57 31.59 123.408 32.748 123.408 34.356C123.408 35.964 123.57 37.122 123.894 37.83C124.218 38.538 124.62 38.892 125.1 38.892C125.592 38.892 125.994 38.538 126.306 37.83C126.63 37.122 126.792 35.964 126.792 34.356C126.792 32.748 126.63 31.59 126.306 30.882C125.994 30.162 125.592 29.802 125.1 29.802ZM134.828 26.742V29.694H136.952V30.054H134.828V37.326C134.828 37.686 134.894 37.944 135.026 38.1C135.158 38.244 135.356 38.316 135.62 38.316C135.836 38.316 136.052 38.238 136.268 38.082C136.484 37.914 136.676 37.632 136.844 37.236L137.15 37.398C136.958 37.938 136.664 38.382 136.268 38.73C135.884 39.078 135.356 39.252 134.684 39.252C134.288 39.252 133.94 39.198 133.64 39.09C133.34 38.994 133.088 38.844 132.884 38.64C132.62 38.376 132.446 38.052 132.362 37.668C132.278 37.272 132.236 36.762 132.236 36.138V30.054H130.724V29.694H132.236V27.318C132.74 27.318 133.202 27.276 133.622 27.192C134.054 27.096 134.456 26.946 134.828 26.742ZM146.844 29.694V30.054C146.616 30.114 146.4 30.258 146.196 30.486C145.992 30.702 145.794 31.074 145.602 31.602L143.064 38.73L142.398 39.99L138.474 31.08C138.27 30.612 138.066 30.33 137.862 30.234C137.67 30.126 137.502 30.072 137.358 30.072V29.694C137.754 29.73 138.162 29.76 138.582 29.784C139.014 29.796 139.428 29.802 139.824 29.802C140.316 29.802 140.766 29.79 141.174 29.766C141.582 29.742 141.966 29.718 142.326 29.694V30.072C142.086 30.072 141.858 30.09 141.642 30.126C141.438 30.15 141.294 30.234 141.21 30.378C141.138 30.51 141.174 30.744 141.318 31.08L143.586 36.552L143.424 36.66L144.756 32.934C144.984 32.286 145.08 31.758 145.044 31.35C145.008 30.93 144.876 30.618 144.648 30.414C144.42 30.198 144.108 30.078 143.712 30.054V29.694C143.904 29.706 144.102 29.718 144.306 29.73C144.51 29.73 144.714 29.736 144.918 29.748C145.122 29.748 145.302 29.748 145.458 29.748C145.698 29.748 145.95 29.742 146.214 29.73C146.478 29.718 146.688 29.706 146.844 29.694ZM143.064 38.73L142.38 40.656C142.26 40.956 142.134 41.208 142.002 41.412C141.882 41.628 141.744 41.802 141.588 41.934C141.42 42.078 141.204 42.186 140.94 42.258C140.676 42.342 140.37 42.384 140.022 42.384C139.734 42.384 139.434 42.336 139.122 42.24C138.822 42.144 138.57 41.988 138.366 41.772C138.162 41.556 138.06 41.28 138.06 40.944C138.06 40.572 138.192 40.272 138.456 40.044C138.72 39.828 139.068 39.72 139.5 39.72C139.896 39.72 140.22 39.816 140.472 40.008C140.724 40.2 140.85 40.482 140.85 40.854C140.85 41.094 140.772 41.322 140.616 41.538C140.472 41.754 140.25 41.916 139.95 42.024C140.01 42.036 140.082 42.042 140.166 42.042C140.25 42.042 140.316 42.042 140.364 42.042C140.724 42.042 141.042 41.928 141.318 41.7C141.594 41.472 141.822 41.112 142.002 40.62L142.632 38.766L143.064 38.73ZM151.588 29.496V40.476C151.588 41.04 151.732 41.412 152.02 41.592C152.308 41.784 152.704 41.88 153.208 41.88V42.258C152.896 42.246 152.464 42.228 151.912 42.204C151.372 42.192 150.796 42.186 150.184 42.186C149.74 42.186 149.302 42.192 148.87 42.204C148.45 42.228 148.132 42.246 147.916 42.258V41.88C148.312 41.88 148.588 41.796 148.744 41.628C148.912 41.46 148.996 41.136 148.996 40.656V31.656C148.996 31.116 148.912 30.72 148.744 30.468C148.576 30.204 148.276 30.072 147.844 30.072V29.694C148.228 29.73 148.6 29.748 148.96 29.748C149.452 29.748 149.92 29.73 150.364 29.694C150.808 29.646 151.216 29.58 151.588 29.496ZM154.378 29.442C154.99 29.442 155.536 29.61 156.016 29.946C156.496 30.27 156.88 30.768 157.168 31.44C157.456 32.1 157.6 32.928 157.6 33.924C157.6 34.8 157.498 35.568 157.294 36.228C157.102 36.888 156.82 37.446 156.448 37.902C156.088 38.346 155.65 38.682 155.134 38.91C154.63 39.138 154.06 39.252 153.424 39.252C152.956 39.252 152.53 39.168 152.146 39C151.762 38.844 151.468 38.616 151.264 38.316L151.444 38.082C151.564 38.298 151.732 38.466 151.948 38.586C152.176 38.706 152.434 38.766 152.722 38.766C153.262 38.766 153.688 38.586 154 38.226C154.312 37.854 154.534 37.338 154.666 36.678C154.81 36.006 154.882 35.208 154.882 34.284C154.882 33.252 154.816 32.442 154.684 31.854C154.552 31.266 154.372 30.846 154.144 30.594C153.916 30.342 153.64 30.216 153.316 30.216C152.884 30.216 152.488 30.384 152.128 30.72C151.78 31.056 151.582 31.536 151.534 32.16L151.444 31.53C151.66 30.846 152.026 30.33 152.542 29.982C153.07 29.622 153.682 29.442 154.378 29.442ZM163.893 29.442C164.949 29.442 165.777 29.754 166.377 30.378C166.977 31.002 167.277 32.022 167.277 33.438H161.355L161.319 33.096H165.009C165.021 32.508 164.985 31.968 164.901 31.476C164.817 30.972 164.685 30.57 164.505 30.27C164.325 29.97 164.085 29.82 163.785 29.82C163.365 29.82 163.005 30.084 162.705 30.612C162.417 31.14 162.243 32.016 162.183 33.24L162.237 33.348C162.225 33.492 162.213 33.642 162.201 33.798C162.201 33.954 162.201 34.116 162.201 34.284C162.201 35.112 162.315 35.784 162.543 36.3C162.783 36.816 163.083 37.194 163.443 37.434C163.803 37.662 164.169 37.776 164.541 37.776C164.793 37.776 165.051 37.74 165.315 37.668C165.591 37.584 165.867 37.44 166.143 37.236C166.419 37.02 166.677 36.72 166.917 36.336L167.241 36.444C167.097 36.9 166.869 37.344 166.557 37.776C166.245 38.208 165.849 38.562 165.369 38.838C164.889 39.114 164.313 39.252 163.641 39.252C162.825 39.252 162.105 39.078 161.481 38.73C160.857 38.382 160.365 37.854 160.005 37.146C159.657 36.438 159.483 35.538 159.483 34.446C159.483 33.33 159.669 32.4 160.041 31.656C160.425 30.912 160.947 30.36 161.607 30C162.279 29.628 163.041 29.442 163.893 29.442Z" fill="#1F0000"/>
</svg>
