<svg width="204" height="70" viewBox="0 0 204 70" fill="none" xmlns="http://www.w3.org/2000/svg">
<path d="M102 12.5C130.134 12.5 155.586 15.7425 173.988 20.9746C183.193 23.5916 190.605 26.6989 195.705 30.127C200.823 33.5672 203.5 37.2508 203.5 41C203.5 44.7492 200.823 48.4328 195.705 51.873C190.605 55.3011 183.193 58.4084 173.988 61.0254C155.586 66.2575 130.134 69.5 102 69.5C73.8662 69.5 48.4142 66.2575 30.0117 61.0254C20.8072 58.4084 13.3948 55.3011 8.29492 51.873C3.17704 48.4328 0.5 44.7492 0.5 41C0.5 37.2508 3.17704 33.5672 8.29492 30.127C13.3948 26.6989 20.8072 23.5916 30.0117 20.9746C48.4142 15.7425 73.8662 12.5 102 12.5Z" fill="#1F0000" stroke="#1F0000"/>
<path d="M102 3.5C130.134 3.5 155.586 6.74252 173.988 11.9746C183.193 14.5916 190.605 17.6989 195.705 21.127C200.823 24.5672 203.5 28.2508 203.5 32C203.5 35.7492 200.823 39.4328 195.705 42.873C190.605 46.3011 183.193 49.4084 173.988 52.0254C155.586 57.2575 130.134 60.5 102 60.5C73.8662 60.5 48.4142 57.2575 30.0117 52.0254C20.8072 49.4084 13.3948 46.3011 8.29492 42.873C3.17704 39.4328 0.5 35.7492 0.5 32C0.5 28.2508 3.17704 24.5672 8.29492 21.127C13.3948 17.6989 20.8072 14.5916 30.0117 11.9746C48.4142 6.74252 73.8662 3.5 102 3.5Z" fill="#FFFBEA" stroke="#1F0000"/>
<path d="M68.1547 26.256V26.616C67.7707 26.628 67.4827 26.676 67.2907 26.76C67.0987 26.832 66.9667 26.976 66.8947 27.192C66.8347 27.396 66.8047 27.72 66.8047 28.164V37.092C66.8047 37.524 66.8347 37.848 66.8947 38.064C66.9667 38.28 67.0987 38.424 67.2907 38.496C67.4827 38.568 67.7707 38.616 68.1547 38.64V39C67.8187 38.976 67.3927 38.964 66.8767 38.964C66.3727 38.952 65.8567 38.946 65.3287 38.946C64.7527 38.946 64.2127 38.952 63.7087 38.964C63.2047 38.964 62.7967 38.976 62.4847 39V38.64C62.8927 38.616 63.1987 38.568 63.4027 38.496C63.6187 38.424 63.7627 38.28 63.8347 38.064C63.9067 37.848 63.9427 37.524 63.9427 37.092V27.354H64.0687L59.6047 39.018H59.3167L54.4567 27.426V36.048C54.4567 36.708 54.4927 37.218 54.5647 37.578C54.6367 37.926 54.7927 38.178 55.0327 38.334C55.2847 38.478 55.6747 38.58 56.2027 38.64V39C55.9747 38.976 55.6747 38.964 55.3027 38.964C54.9307 38.952 54.5827 38.946 54.2587 38.946C53.9827 38.946 53.7007 38.952 53.4127 38.964C53.1247 38.964 52.8847 38.976 52.6927 39V38.64C53.0767 38.58 53.3647 38.478 53.5567 38.334C53.7487 38.19 53.8747 37.956 53.9347 37.632C54.0067 37.296 54.0427 36.84 54.0427 36.264V28.164C54.0427 27.72 54.0067 27.396 53.9347 27.192C53.8747 26.976 53.7427 26.832 53.5387 26.76C53.3467 26.676 53.0647 26.628 52.6927 26.616V26.256C52.8847 26.268 53.1247 26.28 53.4127 26.292C53.7007 26.304 53.9827 26.31 54.2587 26.31C54.7747 26.31 55.2787 26.304 55.7707 26.292C56.2747 26.28 56.7187 26.268 57.1027 26.256L60.8827 35.382L60.4327 35.796L64.0507 26.31C64.2547 26.31 64.4647 26.31 64.6807 26.31C64.8967 26.31 65.1127 26.31 65.3287 26.31C65.8567 26.31 66.3727 26.304 66.8767 26.292C67.3927 26.28 67.8187 26.268 68.1547 26.256ZM78.237 29.694V30.054C78.009 30.114 77.793 30.258 77.589 30.486C77.385 30.702 77.187 31.074 76.995 31.602L74.457 38.73L73.791 39.99L69.867 31.08C69.663 30.612 69.459 30.33 69.255 30.234C69.063 30.126 68.895 30.072 68.751 30.072V29.694C69.147 29.73 69.555 29.76 69.975 29.784C70.407 29.796 70.821 29.802 71.217 29.802C71.709 29.802 72.159 29.79 72.567 29.766C72.975 29.742 73.359 29.718 73.719 29.694V30.072C73.479 30.072 73.251 30.09 73.035 30.126C72.831 30.15 72.687 30.234 72.603 30.378C72.531 30.51 72.567 30.744 72.711 31.08L74.979 36.552L74.817 36.66L76.149 32.934C76.377 32.286 76.473 31.758 76.437 31.35C76.401 30.93 76.269 30.618 76.041 30.414C75.813 30.198 75.501 30.078 75.105 30.054V29.694C75.297 29.706 75.495 29.718 75.699 29.73C75.903 29.73 76.107 29.736 76.311 29.748C76.515 29.748 76.695 29.748 76.851 29.748C77.091 29.748 77.343 29.742 77.607 29.73C77.871 29.718 78.081 29.706 78.237 29.694ZM74.457 38.73L73.773 40.656C73.653 40.956 73.527 41.208 73.395 41.412C73.275 41.628 73.137 41.802 72.981 41.934C72.813 42.078 72.597 42.186 72.333 42.258C72.069 42.342 71.763 42.384 71.415 42.384C71.127 42.384 70.827 42.336 70.515 42.24C70.215 42.144 69.963 41.988 69.759 41.772C69.555 41.556 69.453 41.28 69.453 40.944C69.453 40.572 69.585 40.272 69.849 40.044C70.113 39.828 70.461 39.72 70.893 39.72C71.289 39.72 71.613 39.816 71.865 40.008C72.117 40.2 72.243 40.482 72.243 40.854C72.243 41.094 72.165 41.322 72.009 41.538C71.865 41.754 71.643 41.916 71.343 42.024C71.403 42.036 71.475 42.042 71.559 42.042C71.643 42.042 71.709 42.042 71.757 42.042C72.117 42.042 72.435 41.928 72.711 41.7C72.987 41.472 73.215 41.112 73.395 40.62L74.025 38.766L74.457 38.73ZM83.7204 26.256C84.0204 26.268 84.4224 26.28 84.9264 26.292C85.4424 26.304 85.9524 26.31 86.4564 26.31C87.0324 26.31 87.5904 26.304 88.1304 26.292C88.6704 26.28 89.0544 26.274 89.2824 26.274C90.3984 26.274 91.3224 26.4 92.0544 26.652C92.7984 26.892 93.3504 27.246 93.7104 27.714C94.0824 28.182 94.2684 28.746 94.2684 29.406C94.2684 29.814 94.1844 30.228 94.0164 30.648C93.8484 31.056 93.5604 31.44 93.1524 31.8C92.7564 32.148 92.2104 32.43 91.5144 32.646C90.8184 32.85 89.9424 32.952 88.8864 32.952H87.1584V32.592H88.7064C89.4144 32.592 89.9484 32.46 90.3084 32.196C90.6804 31.92 90.9324 31.56 91.0644 31.116C91.2084 30.66 91.2804 30.156 91.2804 29.604C91.2804 28.656 91.1124 27.924 90.7764 27.408C90.4404 26.88 89.8644 26.616 89.0484 26.616C88.5804 26.616 88.2744 26.718 88.1304 26.922C87.9984 27.126 87.9324 27.54 87.9324 28.164V37.092C87.9324 37.524 87.9624 37.848 88.0224 38.064C88.0944 38.28 88.2264 38.424 88.4184 38.496C88.6104 38.568 88.8984 38.616 89.2824 38.64V39C88.9584 38.976 88.5504 38.964 88.0584 38.964C87.5664 38.952 87.0684 38.946 86.5644 38.946C85.9884 38.946 85.4424 38.952 84.9264 38.964C84.4224 38.964 84.0204 38.976 83.7204 39V38.64C84.1044 38.616 84.3924 38.568 84.5844 38.496C84.7764 38.424 84.9024 38.28 84.9624 38.064C85.0344 37.848 85.0704 37.524 85.0704 37.092V28.164C85.0704 27.72 85.0344 27.396 84.9624 27.192C84.9024 26.976 84.7704 26.832 84.5664 26.76C84.3744 26.676 84.0924 26.628 83.7204 26.616V26.256ZM87.1224 32.646C87.6384 32.658 88.0824 32.682 88.4544 32.718C88.8384 32.754 89.1744 32.79 89.4624 32.826C89.7504 32.85 90.0084 32.868 90.2364 32.88C91.3284 32.976 92.1324 33.21 92.6484 33.582C93.1764 33.954 93.5184 34.512 93.6744 35.256L94.0884 37.11C94.1964 37.59 94.3104 37.926 94.4304 38.118C94.5504 38.31 94.7244 38.406 94.9524 38.406C95.1084 38.394 95.2344 38.358 95.3304 38.298C95.4384 38.226 95.5524 38.124 95.6724 37.992L95.9244 38.208C95.6004 38.58 95.2524 38.844 94.8804 39C94.5084 39.168 94.0584 39.252 93.5304 39.252C92.8824 39.252 92.3484 39.114 91.9284 38.838C91.5084 38.562 91.2324 38.052 91.1004 37.308L90.7764 35.508C90.6924 35.004 90.5904 34.566 90.4704 34.194C90.3504 33.81 90.1824 33.51 89.9664 33.294C89.7624 33.066 89.4744 32.952 89.1024 32.952H87.1584L87.1224 32.646ZM101.187 29.442C102.243 29.442 103.071 29.754 103.671 30.378C104.271 31.002 104.571 32.022 104.571 33.438H98.6493L98.6133 33.096H102.303C102.315 32.508 102.279 31.968 102.195 31.476C102.111 30.972 101.979 30.57 101.799 30.27C101.619 29.97 101.379 29.82 101.079 29.82C100.659 29.82 100.299 30.084 99.9993 30.612C99.7113 31.14 99.5373 32.016 99.4773 33.24L99.5313 33.348C99.5193 33.492 99.5073 33.642 99.4953 33.798C99.4953 33.954 99.4953 34.116 99.4953 34.284C99.4953 35.112 99.6093 35.784 99.8373 36.3C100.077 36.816 100.377 37.194 100.737 37.434C101.097 37.662 101.463 37.776 101.835 37.776C102.087 37.776 102.345 37.74 102.609 37.668C102.885 37.584 103.161 37.44 103.437 37.236C103.713 37.02 103.971 36.72 104.211 36.336L104.535 36.444C104.391 36.9 104.163 37.344 103.851 37.776C103.539 38.208 103.143 38.562 102.663 38.838C102.183 39.114 101.607 39.252 100.935 39.252C100.119 39.252 99.3993 39.078 98.7753 38.73C98.1513 38.382 97.6593 37.854 97.2993 37.146C96.9513 36.438 96.7773 35.538 96.7773 34.446C96.7773 33.33 96.9633 32.4 97.3353 31.656C97.7193 30.912 98.2413 30.36 98.9013 30C99.5733 29.628 100.335 29.442 101.187 29.442ZM109.718 29.442C110.222 29.442 110.66 29.508 111.032 29.64C111.416 29.76 111.692 29.88 111.86 30C112.268 30.276 112.52 30.096 112.616 29.46H112.994C112.97 29.796 112.952 30.21 112.94 30.702C112.928 31.182 112.922 31.824 112.922 32.628H112.544C112.484 32.184 112.37 31.746 112.202 31.314C112.034 30.882 111.788 30.528 111.464 30.252C111.152 29.976 110.744 29.838 110.24 29.838C109.892 29.838 109.598 29.94 109.358 30.144C109.118 30.336 108.998 30.618 108.998 30.99C108.998 31.35 109.106 31.668 109.322 31.944C109.538 32.208 109.814 32.466 110.15 32.718C110.498 32.958 110.858 33.216 111.23 33.492C111.626 33.792 111.986 34.092 112.31 34.392C112.634 34.68 112.892 34.998 113.084 35.346C113.276 35.694 113.372 36.108 113.372 36.588C113.372 37.128 113.216 37.602 112.904 38.01C112.592 38.406 112.178 38.712 111.662 38.928C111.158 39.144 110.594 39.252 109.97 39.252C109.61 39.252 109.286 39.216 108.998 39.144C108.722 39.072 108.482 38.982 108.278 38.874C108.122 38.802 107.972 38.736 107.828 38.676C107.696 38.604 107.57 38.544 107.45 38.496C107.33 38.46 107.222 38.502 107.126 38.622C107.042 38.742 106.976 38.91 106.928 39.126H106.55C106.574 38.742 106.592 38.274 106.604 37.722C106.616 37.17 106.622 36.438 106.622 35.526H107C107.072 36.174 107.204 36.75 107.396 37.254C107.588 37.746 107.846 38.136 108.17 38.424C108.506 38.7 108.926 38.838 109.43 38.838C109.634 38.838 109.832 38.796 110.024 38.712C110.216 38.628 110.372 38.49 110.492 38.298C110.624 38.106 110.69 37.86 110.69 37.56C110.69 37.032 110.516 36.594 110.168 36.246C109.832 35.898 109.4 35.52 108.872 35.112C108.488 34.8 108.122 34.494 107.774 34.194C107.438 33.882 107.162 33.546 106.946 33.186C106.73 32.814 106.622 32.394 106.622 31.926C106.622 31.386 106.766 30.93 107.054 30.558C107.342 30.186 107.72 29.91 108.188 29.73C108.668 29.538 109.178 29.442 109.718 29.442ZM123.972 29.496V37.038C123.972 37.578 124.056 37.98 124.224 38.244C124.392 38.496 124.692 38.622 125.124 38.622V39C124.752 38.964 124.38 38.946 124.008 38.946C123.504 38.946 123.036 38.964 122.604 39C122.172 39.036 121.764 39.102 121.38 39.198V37.578C121.092 38.178 120.69 38.61 120.174 38.874C119.67 39.126 119.106 39.252 118.482 39.252C117.978 39.252 117.57 39.186 117.258 39.054C116.946 38.922 116.7 38.754 116.52 38.55C116.316 38.322 116.172 38.022 116.088 37.65C116.004 37.278 115.962 36.798 115.962 36.21V31.656C115.962 31.116 115.878 30.72 115.71 30.468C115.554 30.204 115.254 30.072 114.81 30.072V29.694C115.194 29.73 115.566 29.748 115.926 29.748C116.43 29.748 116.898 29.73 117.33 29.694C117.774 29.646 118.182 29.58 118.554 29.496V36.948C118.554 37.248 118.578 37.512 118.626 37.74C118.686 37.968 118.794 38.148 118.95 38.28C119.106 38.4 119.334 38.46 119.634 38.46C119.958 38.46 120.246 38.37 120.498 38.19C120.762 38.01 120.972 37.764 121.128 37.452C121.296 37.128 121.38 36.768 121.38 36.372V31.656C121.38 31.116 121.296 30.72 121.128 30.468C120.972 30.204 120.672 30.072 120.228 30.072V29.694C120.612 29.73 120.984 29.748 121.344 29.748C121.848 29.748 122.316 29.73 122.748 29.694C123.192 29.646 123.6 29.58 123.972 29.496ZM132.998 29.442C133.502 29.442 133.91 29.508 134.222 29.64C134.534 29.76 134.786 29.928 134.978 30.144C135.17 30.372 135.308 30.672 135.392 31.044C135.476 31.404 135.518 31.884 135.518 32.484V37.326C135.518 37.83 135.596 38.172 135.752 38.352C135.908 38.532 136.178 38.622 136.562 38.622V39C136.346 38.988 136.016 38.976 135.572 38.964C135.14 38.94 134.714 38.928 134.294 38.928C133.862 38.928 133.436 38.94 133.016 38.964C132.596 38.976 132.278 38.988 132.062 39V38.622C132.386 38.622 132.608 38.532 132.728 38.352C132.86 38.172 132.926 37.83 132.926 37.326V31.728C132.926 31.428 132.902 31.17 132.854 30.954C132.806 30.726 132.71 30.552 132.566 30.432C132.434 30.3 132.23 30.234 131.954 30.234C131.642 30.234 131.354 30.324 131.09 30.504C130.826 30.684 130.61 30.936 130.442 31.26C130.286 31.572 130.208 31.926 130.208 32.322V37.326C130.208 37.83 130.274 38.172 130.406 38.352C130.538 38.532 130.76 38.622 131.072 38.622V39C130.88 38.988 130.58 38.976 130.172 38.964C129.776 38.94 129.368 38.928 128.948 38.928C128.492 38.928 128.024 38.94 127.544 38.964C127.064 38.976 126.704 38.988 126.464 39V38.622C126.884 38.622 127.178 38.532 127.346 38.352C127.526 38.172 127.616 37.83 127.616 37.326V31.656C127.616 31.116 127.532 30.72 127.364 30.468C127.208 30.204 126.908 30.072 126.464 30.072V29.694C126.848 29.73 127.22 29.748 127.58 29.748C128.084 29.748 128.552 29.73 128.984 29.694C129.428 29.646 129.836 29.58 130.208 29.496V31.116C130.496 30.516 130.886 30.09 131.378 29.838C131.87 29.574 132.41 29.442 132.998 29.442ZM138.416 29.442C138.92 29.442 139.328 29.508 139.64 29.64C139.952 29.76 140.204 29.928 140.396 30.144C140.588 30.372 140.726 30.672 140.81 31.044C140.894 31.404 140.936 31.884 140.936 32.484V37.326C140.936 37.83 141.02 38.172 141.188 38.352C141.368 38.532 141.668 38.622 142.088 38.622V39C141.86 38.988 141.518 38.976 141.062 38.964C140.606 38.94 140.156 38.928 139.712 38.928C139.28 38.928 138.854 38.94 138.434 38.964C138.014 38.976 137.696 38.988 137.48 39V38.622C137.804 38.622 138.026 38.532 138.146 38.352C138.278 38.172 138.344 37.83 138.344 37.326V31.728C138.344 31.428 138.314 31.17 138.254 30.954C138.206 30.726 138.104 30.552 137.948 30.432C137.804 30.3 137.576 30.234 137.264 30.234C136.952 30.234 136.664 30.33 136.4 30.522C136.136 30.714 135.92 30.972 135.752 31.296C135.596 31.62 135.512 31.98 135.5 32.376L135.41 31.278C135.734 30.558 136.16 30.072 136.688 29.82C137.228 29.568 137.804 29.442 138.416 29.442ZM147.943 29.442C148.999 29.442 149.827 29.754 150.427 30.378C151.027 31.002 151.327 32.022 151.327 33.438H145.405L145.369 33.096H149.059C149.071 32.508 149.035 31.968 148.951 31.476C148.867 30.972 148.735 30.57 148.555 30.27C148.375 29.97 148.135 29.82 147.835 29.82C147.415 29.82 147.055 30.084 146.755 30.612C146.467 31.14 146.293 32.016 146.233 33.24L146.287 33.348C146.275 33.492 146.263 33.642 146.251 33.798C146.251 33.954 146.251 34.116 146.251 34.284C146.251 35.112 146.365 35.784 146.593 36.3C146.833 36.816 147.133 37.194 147.493 37.434C147.853 37.662 148.219 37.776 148.591 37.776C148.843 37.776 149.101 37.74 149.365 37.668C149.641 37.584 149.917 37.44 150.193 37.236C150.469 37.02 150.727 36.72 150.967 36.336L151.291 36.444C151.147 36.9 150.919 37.344 150.607 37.776C150.295 38.208 149.899 38.562 149.419 38.838C148.939 39.114 148.363 39.252 147.691 39.252C146.875 39.252 146.155 39.078 145.531 38.73C144.907 38.382 144.415 37.854 144.055 37.146C143.707 36.438 143.533 35.538 143.533 34.446C143.533 33.33 143.719 32.4 144.091 31.656C144.475 30.912 144.997 30.36 145.657 30C146.329 29.628 147.091 29.442 147.943 29.442Z" fill="#1F0000"/>
</svg>
